<?xml version="1.0" encoding="utf-8"?>
<!-- Generator: Adobe Illustrator 21.0.2, SVG Export Plug-In . SVG Version: 6.00 Build 0)  -->
<svg version="1.1" id="Layer_1" xmlns="http://www.w3.org/2000/svg" xmlns:xlink="http://www.w3.org/1999/xlink" x="0px" y="0px"
	 viewBox="0 0 89.6 51" style="enable-background:new 0 0 89.6 51;" xml:space="preserve">
<style type="text/css">
	.st0{enable-background:new    ;}
	.st1{fill:#FFFFFF;}
	.st2{fill:#BB9A58;}
	.st3{fill:#D3192A;}
</style>
<title>Artboard 1</title>
<g class="st0">
	<path class="st1" d="M11.6,40c0.5,0.4,1,0.9,1.3,1.5c0.3,0.6,0.5,1.3,0.5,2.1c0,0.8-0.1,1.4-0.4,2c-0.3,0.6-0.7,1.1-1.3,1.5
		c-0.6,0.4-1.3,0.8-2,1c-0.8,0.2-1.6,0.3-2.6,0.3c-1,0-1.8-0.1-2.6-0.3s-1.4-0.5-2-0.9c-0.6-0.4-1-0.9-1.3-1.5
		c-0.3-0.6-0.4-1.3-0.4-2c0-0.8,0.1-1.5,0.4-2.1C1.4,41,1.8,40.5,2.4,40c0.6-0.4,1.2-0.7,2-0.9C5.1,38.9,6,38.8,7,38.8
		c1,0,1.9,0.1,2.6,0.3S11,39.6,11.6,40z M11.3,43.6c0-0.6-0.1-1.2-0.3-1.6c-0.2-0.5-0.5-0.9-0.9-1.2c-0.4-0.3-0.8-0.6-1.4-0.7
		S7.6,39.9,7,39.9c-0.7,0-1.3,0.1-1.8,0.2s-1,0.4-1.4,0.7c-0.4,0.3-0.7,0.7-0.9,1.2s-0.3,1-0.3,1.6c0,1.2,0.4,2.2,1.2,2.8
		c0.8,0.6,1.8,1,3.2,1s2.4-0.3,3.2-1C10.9,45.8,11.3,44.9,11.3,43.6z"/>
	<path class="st1" d="M26.5,48.3H24l-4.5-3.7h-2.2v3.7h-1.9V39h3.7c0.8,0,1.5,0,2.1,0.1c0.6,0.1,1.1,0.2,1.6,0.4
		c0.5,0.2,0.9,0.5,1.2,0.8c0.3,0.3,0.4,0.7,0.4,1.2c0,0.7-0.3,1.3-0.8,1.7c-0.5,0.5-1.3,0.8-2.2,1L26.5,48.3z M22.4,41.6
		c0-0.3-0.1-0.5-0.2-0.7c-0.1-0.2-0.4-0.4-0.7-0.5c-0.3-0.1-0.6-0.2-0.9-0.2c-0.4,0-0.8-0.1-1.3-0.1h-1.9v3.5H19c0.5,0,1,0,1.5-0.1
		s0.8-0.2,1.1-0.4c0.3-0.2,0.5-0.4,0.6-0.6C22.3,42.2,22.4,41.9,22.4,41.6z"/>
	<path class="st1" d="M32.6,48.3h-5.6v-0.9h1.8v-7.4h-1.8V39h5.6v0.9h-1.8v7.4h1.8V48.3z"/>
	<path class="st1" d="M41,48.5c-1,0-1.9-0.1-2.8-0.3c-0.8-0.2-1.6-0.5-2.2-0.9c-0.6-0.4-1.1-0.9-1.4-1.5c-0.3-0.6-0.5-1.3-0.5-2.1
		c0-0.7,0.2-1.4,0.5-2c0.3-0.6,0.8-1.1,1.4-1.5c0.6-0.4,1.3-0.7,2.2-0.9c0.9-0.2,1.8-0.3,2.8-0.3c0.5,0,0.9,0,1.4,0.1
		c0.4,0,0.9,0.1,1.3,0.2c0.3,0.1,0.7,0.1,1.1,0.3s0.7,0.2,1,0.3v1.5h-0.2c-0.2-0.1-0.5-0.3-0.7-0.4s-0.6-0.3-1.1-0.4
		c-0.4-0.1-0.8-0.2-1.3-0.3c-0.5-0.1-1-0.1-1.6-0.1c-1.4,0-2.5,0.3-3.3,1c-0.8,0.7-1.3,1.6-1.3,2.7c0,0.6,0.1,1.2,0.3,1.6
		c0.2,0.5,0.5,0.9,1,1.2c0.4,0.3,0.9,0.6,1.5,0.7c0.6,0.2,1.2,0.3,2,0.3c0.5,0,1.1,0,1.6-0.1c0.5,0,1-0.1,1.3-0.2v-2.4h-3.3v-1.1
		h5.2v4.1c-0.2,0.1-0.6,0.2-1,0.3s-0.8,0.2-1.1,0.3c-0.5,0.1-0.9,0.2-1.3,0.2C41.9,48.4,41.5,48.5,41,48.5z"/>
	<path class="st1" d="M53.1,48.3h-5.6v-0.9h1.8v-7.4h-1.8V39h5.6v0.9h-1.8v7.4h1.8V48.3z"/>
	<path class="st1" d="M65.7,48.3h-2.1l-6.3-8v8h-1.8V39h2.7l5.8,7.4V39h1.8V48.3z"/>
	<path class="st1" d="M67.1,48.3l4.8-9.3h2.3l4.8,9.3h-2l-1.3-2.6h-5.5L69,48.3H67.1z M75.2,44.6L73,40.2l-2.2,4.4H75.2z"/>
	<path class="st1" d="M88.7,48.3h-8.3V39h1.9v8.2h6.4V48.3z"/>
</g>
<g class="st0">
	<path class="st2" d="M0.8,35.8v-3.7h2.4c0.5,0,0.8,0.1,1.1,0.2s0.4,0.4,0.4,0.7c0,0.4-0.3,0.7-0.8,0.8c0.7,0.1,1,0.4,1,0.9
		c0,0.3-0.1,0.6-0.4,0.7s-0.6,0.3-1.1,0.3H0.8z M1.2,33.8h1.8c0.3,0,0.6-0.1,0.7-0.2s0.3-0.3,0.3-0.5c0-0.2-0.1-0.4-0.3-0.5
		c-0.2-0.1-0.4-0.2-0.8-0.2H1.2V33.8z M1.2,35.5h2c0.3,0,0.6-0.1,0.8-0.2s0.3-0.3,0.3-0.5c0-0.2-0.1-0.4-0.3-0.5S3.6,34,3.2,34h-2
		V35.5z"/>
	<path class="st2" d="M5.9,34.5v-1.2c0-0.4,0.2-0.7,0.6-1C6.8,32.1,7.3,32,8,32c0.6,0,1.1,0.1,1.4,0.3c0.4,0.2,0.6,0.5,0.6,0.9v0.1
		H9.6v-0.1c0-0.3-0.2-0.5-0.5-0.7c-0.3-0.2-0.7-0.2-1.1-0.2c-0.4,0-0.7,0-0.9,0.1s-0.4,0.2-0.6,0.3c-0.1,0.2-0.2,0.3-0.2,0.5v1.2
		c0,0.3,0.1,0.6,0.4,0.7C7,35.5,7.5,35.6,8,35.6c0.4,0,0.8-0.1,1.1-0.2c0.3-0.2,0.5-0.4,0.5-0.7v-0.1H10v0.1c0,0.4-0.2,0.7-0.6,0.9
		C9,35.8,8.6,35.9,8,35.9c-0.7,0-1.2-0.1-1.6-0.3C6,35.3,5.9,35,5.9,34.5z"/>
	<path class="st2" d="M11.3,35.8v-3.7h3.4v0.3h-3v1.4h2.6v0.3h-2.6v1.4h3v0.3H11.3z M12,31.8v-0.6h0.5v0.6H12z M13.6,31.8v-0.6H14
		v0.6H13.6z"/>
	<path class="st2" d="M17.5,35.5h0.4c0.1-0.1,0.3-0.3,0.4-0.4c0.1-0.1,0.1-0.1,0.2-0.2c0-0.1,0.1-0.2,0.1-0.3c0-0.1,0.1-0.3,0.1-0.4
		c0-0.2,0-0.3,0-0.5v-1.5H22v3.4h0.7v1h-0.4v-0.8H18v0.8h-0.4V35.5z M18.5,35.5h3v-3.1h-2.3v1.3c0,0.5-0.1,0.9-0.2,1.1
		C18.9,35,18.7,35.3,18.5,35.5z"/>
	<path class="st2" d="M23.2,35.8v-0.3c0.4,0,0.7-0.1,0.9-0.3c0.2-0.2,0.3-0.6,0.3-1.3v-1.8h3.3v3.7h-0.5v-3.4h-2.4v1.5
		c0,0.7-0.1,1.2-0.4,1.5C24.2,35.6,23.7,35.8,23.2,35.8z"/>
	<path class="st2" d="M28.9,35.8v-0.1l1.4-1.4c-0.3,0-0.5-0.1-0.7-0.2c-0.2-0.1-0.3-0.2-0.4-0.4c-0.1-0.2-0.2-0.3-0.2-0.5
		c0-0.3,0.1-0.6,0.4-0.8s0.7-0.3,1.1-0.3h2.3v3.7h-0.5v-1.5h-1.6l-1.4,1.5H28.9z M29.5,33.2c0,0.1,0,0.2,0.1,0.3
		c0.1,0.1,0.1,0.2,0.2,0.3c0.1,0.1,0.2,0.1,0.4,0.2s0.3,0.1,0.5,0.1h1.7v-1.6h-1.7c-0.4,0-0.6,0.1-0.9,0.2
		C29.6,32.7,29.5,32.9,29.5,33.2z"/>
	<path class="st2" d="M36.5,35.8v-3.7h3.7v0.3h-3.2v1.2h2c0.5,0,0.9,0.1,1.1,0.3c0.3,0.2,0.4,0.5,0.4,0.8c0,0.3-0.1,0.6-0.4,0.8
		s-0.6,0.3-1.1,0.3H36.5z M36.9,35.5h1.9c0.2,0,0.4,0,0.6-0.1c0.2-0.1,0.3-0.2,0.4-0.3c0.1-0.1,0.1-0.3,0.1-0.4
		c0-0.3-0.1-0.4-0.3-0.6c-0.2-0.1-0.5-0.2-0.8-0.2h-1.9V35.5z"/>
	<path class="st2" d="M41.5,34.5v-1.2c0-0.4,0.2-0.7,0.6-1c0.4-0.2,0.9-0.3,1.6-0.3c0.6,0,1.2,0.1,1.5,0.3c0.4,0.2,0.6,0.6,0.6,1
		v1.2c0,0.4-0.2,0.7-0.6,1s-0.9,0.4-1.5,0.4c-0.7,0-1.2-0.1-1.6-0.3C41.7,35.3,41.5,35,41.5,34.5z M42,34.6c0,0.3,0.1,0.6,0.4,0.7
		c0.3,0.2,0.7,0.3,1.2,0.3c0.5,0,0.9-0.1,1.2-0.3c0.3-0.2,0.4-0.4,0.4-0.7v-1.2c0-0.3-0.1-0.6-0.4-0.7c-0.3-0.2-0.7-0.3-1.2-0.3
		c-0.5,0-0.9,0.1-1.2,0.3C42.1,32.8,42,33,42,33.3V34.6z"/>
</g>
<g class="st0">
	<path class="st2" d="M47.1,35.8v-3.7h0.5v1.7h1.1l1.8-1.7h0.4v0.1l-1.8,1.7l1.9,1.8v0.1h-0.5l-1.8-1.7h-1.1v1.7H47.1z"/>
</g>
<g class="st0">
	<path class="st2" d="M51.7,34.5v-1.2c0-0.4,0.2-0.7,0.6-1c0.4-0.2,0.9-0.3,1.6-0.3c0.6,0,1.1,0.1,1.4,0.3c0.4,0.2,0.6,0.5,0.6,0.9
		v0.1h-0.5v-0.1c0-0.3-0.2-0.5-0.5-0.7c-0.3-0.2-0.7-0.2-1.1-0.2c-0.4,0-0.7,0-0.9,0.1s-0.4,0.2-0.6,0.3c-0.1,0.2-0.2,0.3-0.2,0.5
		v1.2c0,0.3,0.1,0.6,0.4,0.7c0.3,0.2,0.7,0.3,1.2,0.3c0.4,0,0.8-0.1,1.1-0.2c0.3-0.2,0.5-0.4,0.5-0.7v-0.1h0.5v0.1
		c0,0.4-0.2,0.7-0.6,0.9c-0.4,0.2-0.9,0.3-1.4,0.3c-0.7,0-1.2-0.1-1.6-0.3C51.9,35.3,51.7,35,51.7,34.5z"/>
	<path class="st2" d="M56.6,35.8v-0.1l2.2-3.6h0.5l2.2,3.6v0.1H61l-0.6-1h-2.7l-0.6,1H56.6z M57.8,34.5h2.4l-1.2-2L57.8,34.5z"/>
	<path class="st2" d="M64.5,35.8v-3.7H65v3.1l3.2-3.1h0.4v3.7h-0.5v-3.1L65,35.8H64.5z"/>
	<path class="st2" d="M72.2,35.8v-3.7h0.4l2,2l2-2h0.4v3.7h-0.5v-3.1l-1.8,1.8h-0.3l-1.8-1.8v3.1H72.2z"/>
	<path class="st2" d="M78.7,35.8v-3.7h0.4l2,2l2-2h0.4v3.7h-0.5v-3.1l-1.8,1.8h-0.3l-1.8-1.8v3.1H78.7z"/>
	<path class="st2" d="M84.5,35.8v-0.1l2.2-3.6h0.5l2.2,3.6v0.1h-0.5l-0.6-1h-2.7l-0.6,1H84.5z M85.7,34.5h2.4l-1.2-2L85.7,34.5z"/>
</g>
<path class="st3" d="M0.7,0.1H2l0.2,0.1l0.5-0.1h6.1C9,0.1,9.1,0.3,9.1,0.6v2.9C9,3.7,8.9,3.9,8.7,4H4C3.8,4.1,3.7,4.4,3.7,4.6
	l0,0.9l0,1.7L3.5,7.7c0.1,0.2,0.2,0.4,0.2,0.6v2.9l0,0.6l0,0.2c0.1,0.2,0.2,0.4,0.4,0.4h0.7l0.4,0.1l-0.1-0.1h0.7
	c0.1,0,0.3,0.1,0.4,0.1l2-0.1l0.1,1.9L8,14.2l-0.4-0.4l-1-0.6l-0.2-0.7c-0.1,0.1-0.1,0.3-0.1,0.4l-0.1,0.2L6.4,13l-0.1,0.1l0.5,0.3
	l0.9,0.7l0.4,0.4c0.1,0.2,0.2,0.4,0.3,0.6v0.9l-0.6,0.1H4.4l-0.6,0.1v8.6c0,0.3,0.1,0.5,0.3,0.5h5.1v3.4C9.2,29,9,29.2,8.8,29.2H1.3
	c-0.2,0-0.4-0.1-0.6-0.1V10.6L0.7,10L0.7,9.7V0.1z M0.8,0.2C1,0.4,1.2,0.5,1.4,0.7C1.2,0.5,1,0.3,0.8,0.2z M0.8,3
	c0,0.1,0.1,0.1,0.2,0.2L0.8,3z M0.9,0.9L0.9,1.2H1L0.9,0.9z M0.9,12.3v-0.1H0.9L0.9,12.3z M1,16c0,0.1,0,0.1,0.1,0.1
	C1.1,16.1,1.1,16.1,1,16z M1,0.7c0,0.1,0.1,0.1,0.2,0.1L1,0.7z M1.1,5.5c0.1,0.1,0.3,0.2,0.5,0.3L1.1,5.5z M1.2,8.7l0.1,0.1
	C1.3,8.8,1.3,8.8,1.2,8.7L1.2,8.7z M1.3,7.4c0.1,0.1,0.2,0.3,0.3,0.4l0.1-0.2c0.2,0.2,0.3,0.3,0.6,0.4L1.9,7.6L1.3,7.4z M1.4,2.6
	c0,0.1,0,0.1,0.1,0.1C1.5,2.7,1.5,2.7,1.4,2.6L1.4,2.6z M1.5,9.1h0.1V8.9h0L1.5,9.1z M1.6,5.8C1.7,6,1.8,6.2,2,6.4
	C1.9,6.2,1.8,6,1.6,5.8L1.6,5.8z M1.9,8.7c0,0.2,0.1,0.3,0.2,0.4L1.9,8.7z M2,0.6V0.5l0,0V0.6z M2,0.7c0,0.1,0,0.1,0.1,0.1
	C2.1,0.8,2.1,0.8,2,0.7z M2.1,11c0,0.1,0,0.1,0.1,0.1C2.2,11.1,2.2,11,2.1,11z M2.3,5.4V5.2h0L2.3,5.4z M2.6,0.9
	C2.6,0.9,2.7,1,2.8,1L2.6,0.9z M2.8,13.2l-0.2,0.1C2.8,13.4,2.8,13.3,2.8,13.2L2.8,13.2z M2.7,3.6c0,0.1,0.1,0.1,0.2,0.1L2.7,3.6z
	 M2.9,9.7l0.2,0.1C3,9.8,3,9.8,2.9,9.7z M3.2,5.7C3.1,5.8,3,6,3,6.1c0.1,0.1,0.2,0.2,0.4,0.3C3.4,6.2,3.3,5.9,3.2,5.7L3.2,5.7z
	 M3.6,0.2c0.1,0.2,0.2,0.3,0.3,0.4C3.9,0.5,3.8,0.3,3.6,0.2z M3.7,2.1c0,0.1,0,0.1,0.1,0.2C3.8,2.2,3.7,2.1,3.7,2.1z M3.7,10V9.9h0
	L3.7,10z M5.7,14.7L5.5,15C5.7,15,5.7,14.9,5.7,14.7L5.7,14.7z M6.1,14.6L6,15l0.3-0.1C6.3,14.8,6.3,14.7,6.1,14.6L6.1,14.6z
	 M6.1,14.4c0.1,0.1,0.3,0.3,0.5,0.4C6.4,14.6,6.3,14.5,6.1,14.4L6.1,14.4z M6.2,14c0.1,0.1,0.2,0.2,0.3,0.3
	C6.4,14.2,6.3,14.1,6.2,14z M6.5,0.8C6.7,1,6.9,1.2,7.1,1.4L6.5,0.8z M6.8,15c0.1,0.2,0.2,0.3,0.4,0.4l0.3,0.2c0,0,0.1-0.1,0.1-0.1
	c-0.1-0.2-0.2-0.4-0.4-0.5H6.8z M7.3,1.8C7.4,1.9,7.5,2,7.6,2.1C7.5,2,7.4,1.9,7.3,1.8z M7.4,14.2c0.1,0.2,0.2,0.4,0.4,0.5
	C7.7,14.5,7.5,14.3,7.4,14.2L7.4,14.2z M7.6,2.6l0.2,0.1C7.7,2.7,7.7,2.6,7.6,2.6z M7.6,3.2l0.2,0.4l0.1-0.3L7.6,3.2z M7.9,16.1V16
	h0L7.9,16.1z M8.2,3.3c0,0.1,0,0.1,0.1,0.2C8.3,3.4,8.2,3.3,8.2,3.3z M8.7,1.3c0,0.1,0.1,0.1,0.1,0.1C8.9,1.3,8.8,1.3,8.7,1.3
	L8.7,1.3z"/>
<path class="st3" d="M10.7,0h2.9c0.1,0.2,0.2,0.5,0.3,0.7L14.5,6l0.1,0.9l0.1,0.9L16.1,21l2.3-20.4c0-0.2,0.1-0.5,0.3-0.6h2.9
	l-3.7,27.6l-0.1,0.8c0,0.3-0.1,0.5-0.2,0.8h-2.9c-0.1-0.2-0.2-0.5-0.2-0.7L10.7,0z"/>
<path class="st3" d="M45,0.1h2.6l0.2,0.6l0.1-0.1l-0.2-0.5c0.2,0,0.3,0.1,0.4,0.2v5.8c0,0.2,0,0.5-0.1,0.7c-0.3,0-0.6-0.1-0.8-0.2
	l-0.4-0.1l-0.4,0.1C46,6.8,45.8,7,45.7,7.3l-0.3,1l0,0.6l0.4,0.8c0.2,0.3,0.3,0.6,0.4,0.9l0-0.4l0.2,0.2l1.2,0.3l0.2-0.1
	c0.1,0,0.2-0.1,0.3-0.1v3.3l0,0.2L48,14l0,0.3l0,0.8v7.5c0,0.3-0.2,0.6-0.4,0.9L47,24.1c-0.2,0.1-0.4,0.2-0.6,0.4
	c0.1,0.3,0.3,0.5,0.4,0.8l0,0.3l0,0.8v0.2c0.1,0.4,0.1,0.7,0.3,1.1c0.2,0.2,0.4,0.4,0.6,0.6c0.2,0.2,0.4,0.4,0.6,0.6l0.6,0.3H45
	c0-0.1,0-0.1,0-0.2v-8.7v-0.4v-0.1v-2.9l0-0.6l0-9.9l0.3,0.3c0.1,0,0.1-0.1,0.2-0.1l-0.3-0.9L45,4.5V0.1z M45.3,10l0,0.4L45.3,10
	L45.3,10z M45.4,1.4l0.1,0.2V1.2l0-0.1L45.4,1.4z M45.5,10.9v-0.1h0L45.5,10.9z M45.6,12.1V12h0L45.6,12.1z M45.9,17.5l-0.2,0.8
	l0.1,0.9l0.1-0.8L45.9,17.5z M45.8,16.7c0,0.2,0.1,0.5,0.2,0.7C45.9,17.1,45.9,16.9,45.8,16.7L45.8,16.7z M45.9,2.3l0,0.2l0.1-0.1
	L45.9,2.3L45.9,2.3z M45.8,12.9L45.8,12.9L45.8,12.9L45.8,12.9L45.8,12.9z M45.9,21.8c0,0.2,0,0.3,0.1,0.4L45.9,21.8z M46,13.3
	l0,0.4v0.1H46L46,13.3z M46,16v-0.1h0L46,16z M46,19.9v-0.1h0L46,19.9z M46,0.3l0.1,0.1C46.1,0.4,46,0.3,46,0.3z M46.2,0.4
	c0.1,0.2,0.2,0.4,0.3,0.5C46.4,0.8,46.3,0.6,46.2,0.4L46.2,0.4z M46.2,27.2v0.1V27.2L46.2,27.2z M46.3,3l-0.1,0.4l0.2-0.1L46.3,3z
	 M46.2,26.3l0,0.2L46.2,26.3L46.2,26.3z M46.3,22.4v-0.1h0L46.3,22.4z M46.5,3.4L46.5,3.4l0-0.2L46.5,3.4z M46.6,1.4L46.6,1.4
	L46.6,1.4L46.6,1.4z M46.5,2.8V3l0.1-0.1L46.5,2.8z M46.6,3.1l0,0.2L46.6,3.1L46.6,3.1z M46.7,3.6L46.7,3.6L46.7,3.6L46.7,3.6z
	 M46.7,16.6v0.5l0.1-0.4L46.7,16.6z M46.8,17.6l0,0.4L46.8,17.6L46.8,17.6z M46.8,18.1v0.6l0-0.4L46.8,18.1L46.8,18.1z M47,0.1
	l0.2,0.2C47.1,0.3,47.1,0.2,47,0.1L47,0.1z M47.1,4.3L47,4.6l0.2-0.2L47.1,4.3z M47.2,0.7l0,0.5c0.1-0.1,0.1-0.2,0.2-0.4L47.2,0.7z
	 M47.2,2.7c0,0.1,0,0.1,0.1,0.2C47.3,2.8,47.2,2.7,47.2,2.7L47.2,2.7z M47.4,21.7c-0.1,0.1-0.1,0.3-0.2,0.4
	C47.4,22,47.4,21.8,47.4,21.7L47.4,21.7z M47.5,11.3l0,0.2L47.5,11.3L47.5,11.3z M47.5,23.2L47.5,23.2l0.1-0.2h0L47.5,23.2z
	 M47.8,19.7c0,0.1,0,0.1,0.1,0.1C47.9,19.8,47.9,19.7,47.8,19.7L47.8,19.7z M50.2,25.4H53l0,0.5l0,3.2l-0.7,0.1H50l0.2-0.3
	c0.1-0.3,0.2-0.6,0.2-0.9l-0.1-0.6l0.1-0.2c0.1-0.3,0.1-0.7,0.1-1L50.2,25.4z M50.7,28.9v-0.1h0L50.7,28.9z M51.3,27.2
	c-0.1,0.2-0.2,0.3-0.2,0.5l0.1,0.3l0.2,0.1l0.1-0.4C51.5,27.5,51.5,27.3,51.3,27.2L51.3,27.2z"/>
<path class="st3" d="M58.2,0h3.2l2.2,16l-0.1,0.2l-0.2-0.1L63,16.3c-0.2,0-0.4,0.1-0.5,0.2l-0.7-0.1l-0.6-0.4
	c-0.2-0.1-0.4-0.3-0.5-0.5l-0.9-8.4l-0.1,0.3l-1.3,11.7l-0.1,0.6c0,0.1,0,0.2,0.1,0.2h2.4c0.2,0,0.4,0.1,0.5,0.4l0-0.4l-0.1-0.1
	l-0.1-0.6l0.2-0.1l0.6-0.3c0.1-0.2,0.2-0.4,0.3-0.6c0-0.2,0.1-0.5,0.2-0.7c0.1-0.3,0.2-0.5,0.3-0.7l0.6-0.4l0.5,0.1l0.3,2.5
	c-0.1,0-0.1,0.1-0.2,0.1c0.1,0.2,0.2,0.4,0.3,0.6l1.3,9.4l-0.1,0.2h-3v-0.4L61.7,24c-0.2-0.1-0.4-0.2-0.6-0.2h-3.2l-0.6,4.9
	c0,0.3-0.2,0.5-0.4,0.6h-2.7L58.2,0z M56.8,15.5l-0.2,0.4l0.2,0.2l0.7,0.1l-0.1-0.3C57.2,15.8,57,15.6,56.8,15.5z M58.7,21.5
	L58.7,21.5l0.1-0.1h0L58.7,21.5z M61.8,15.5l-0.2,0.3l0.3,0.1C62,15.7,61.9,15.6,61.8,15.5L61.8,15.5z"/>
<path class="st3" d="M68.2,0.1l7.4,0.1l0.6,0.4c0.2,0.2,0.3,0.4,0.4,0.6l0.2,0.9v7c-0.2,0.2-0.4,0.3-0.7,0.3h-2.5V3.8h-0.3l-0.2-0.1
	l-0.5,0.1H70v3.1l-0.1,0.6L70,7.7v1.4l2.1,2.8l0.5,0.5c0.1,0.2,0.3,0.4,0.4,0.6l0.8,1.2l0.5,0.5c0.1,0.2,0.3,0.4,0.4,0.6l1.7,2.3
	l0.3,0.7l0.2,0.9v1.2c0,0.2,0,0.4-0.1,0.6l0.1,0.2c0,0.3,0,0.7-0.1,1l0.1,1v3.5l-0.1,1c-0.1,0.2-0.2,0.5-0.3,0.7L75.9,29l-0.7,0.2
	h-6.6c-0.2,0-0.5-0.1-0.7-0.1c-0.2-0.1-0.4-0.3-0.6-0.4c-0.1-0.2-0.2-0.4-0.3-0.6l-0.2-1v-7.4h3.1l0.1,0.6l-0.1,0.2l0.1,0.6
	l-0.1,0.1l0.1,0.1l-0.1,0.1l0.1,4.1h3.5c0.1-0.3,0.1-0.6,0.2-0.9V20l-0.4-0.6l-2.1-2.8L70.8,16c-0.1-0.2-0.3-0.4-0.4-0.6l-2.9-4
	l-0.4-0.7l-0.2-0.9l-0.1-7l0.1-1.1c0.1-0.3,0.2-0.5,0.3-0.8l0.4-0.6L68.2,0.1z M67.9,3.8C67.9,3.9,67.9,4,68,4
	C68,3.9,67.9,3.9,67.9,3.8z M68,2.9c0,0.1,0,0.2,0.1,0.2C68.1,3,68.1,3,68,2.9z M68.4,9.5c0,0.1,0.1,0.1,0.2,0.1L68.4,9.5z M69,21.5
	v-0.1h0L69,21.5z M69.5,9.5c0,0.1,0.1,0.2,0.2,0.2L69.5,9.5z M72.6,2.6c0,0.2,0.2,0.3,0.3,0.4C72.9,2.9,72.8,2.7,72.6,2.6L72.6,2.6z
	 M73.8,3.6c0,0.1,0,0.1,0.1,0.2C73.9,3.7,73.9,3.6,73.8,3.6L73.8,3.6z M74,16.2c0,0.1,0,0.1,0.1,0.1C74.1,16.3,74.1,16.2,74,16.2z
	 M74.7,8.1c0,0.1,0.1,0.2,0.3,0.2L74.7,8.1z M74.7,17v-0.1h-0.1L74.7,17z M75.2,20.9v0.1h0.1l0.2-0.1L75.2,20.9z M76.4,2.6
	c0.1,0.2,0.2,0.4,0.4,0.5C76.6,2.9,76.5,2.8,76.4,2.6L76.4,2.6z M76.4,8.2c0,0.1,0.1,0.2,0.2,0.2C76.6,8.3,76.5,8.3,76.4,8.2
	L76.4,8.2z"/>
<path class="st3" d="M78.2,0.1h9.9v3.6l-0.1,0.3L87.5,4l-0.3-0.3c-0.3,0-0.5,0.1-0.7,0.3h-1.1c-0.2-0.1-0.4-0.2-0.5-0.3l0,0.3
	l-0.1,4l-0.2-0.2h-0.1v0.1c0.2,0.4,0.3,0.8,0.3,1.2l-0.1,0.5l0.1,0.1v8.9l-0.1,0.6l0.1,0.2v1.9l-0.1,0.3l0.1,3.8l-0.1,0.3l0.1,3.4
	h-2l-0.3-0.1l-0.2,0.1h-0.6l-0.1-1l0.1-0.2c0.1,0,0.1-0.1,0.2-0.1l-0.3-0.1l0.1-0.4l-0.1-0.5c0.1-0.1,0.2-0.2,0.3-0.4l-0.3,0.1
	l0.1-0.7c0-0.3,0.1-0.6,0.2-0.9l0.3-0.2c-0.2-0.1-0.4-0.2-0.5-0.4l0.1-0.2c0-0.2,0-0.4-0.1-0.6l0.1-1c0-0.3,0.1-0.7,0.3-1l-0.4,0.4
	v-0.7l0.1-1.3l-0.1-1.1l0.1-0.3l-0.1-0.7v-0.3l0.1-0.2l-0.1-1.1l0.4-0.4l-0.2-0.1l-0.1,0.1l-0.1-1.4l0.1-0.4l-0.1-0.1V4h-0.6
	l-0.3-0.1L80.7,4h-2.5V0.1z M78.5,0.7V0.6h0L78.5,0.7z M81.7,0.7c0,0.1,0,0.1,0.1,0.2C81.8,0.8,81.8,0.8,81.7,0.7L81.7,0.7z
	 M81.7,26.1L81.7,26.1l0.1-0.1L81.7,26.1z M81.8,23.3v-0.1h-0.1L81.8,23.3z M81.9,25.7L81.9,25.7l-0.1-0.1
	C81.8,25.6,81.8,25.7,81.9,25.7z M81.9,24.9l-0.1,0.5l0.2-0.1C82,25.2,82,25,81.9,24.9z M82.1,19.2l-0.2,0.4l0.2,0.1l0.1-0.4
	L82.1,19.2z M81.9,20.5c0,0.1,0.1,0.1,0.2,0.1L81.9,20.5z M81.9,22l0.3,0.1l0.1-0.1H81.9z M82,16L82,16l0-0.2L82,16z M82,16.6
	c0,0.1,0.1,0.1,0.2,0.1L82,16.6z M82.1,15v-0.1h-0.1L82.1,15z M82.1,21.1l0.2,0.2C82.2,21.2,82.2,21.1,82.1,21.1L82.1,21.1z
	 M82.1,25.4c0.1,0.1,0.1,0.3,0.3,0.4L82.1,25.4z M82.2,20.9l-0.1,0.2l0.1-0.1L82.2,20.9L82.2,20.9z M82.4,26.9c0-0.1,0-0.1-0.1-0.1
	C82.3,26.8,82.3,26.8,82.4,26.9L82.4,26.9z M82.8,26.9c-0.2,0.2-0.3,0.4-0.3,0.6l-0.3,0.2l0.3-0.1c0.2-0.1,0.4-0.2,0.6-0.3
	C83,27.2,83,27.1,82.8,26.9L82.8,26.9z M82.4,17.4l0.2-0.1l-0.2-0.1L82.4,17.4z M82.3,20.4l0.1,0.2L82.3,20.4L82.3,20.4z M82.5,26.3
	l0.2-0.1l-0.3-0.1L82.5,26.3z M82.5,28.3v0.1V28.3L82.5,28.3z M82.7,5c-0.1,0.1-0.1,0.2-0.2,0.4C82.6,5.3,82.7,5.1,82.7,5z
	 M82.5,21.4c0,0.2,0,0.3,0.1,0.4C82.6,21.7,82.6,21.6,82.5,21.4L82.5,21.4z M82.6,15.3l0.1,0.2C82.7,15.4,82.7,15.4,82.6,15.3
	L82.6,15.3z M82.7,10.7l-0.1,0.4l0.2-0.3C82.8,10.8,82.8,10.8,82.7,10.7L82.7,10.7z M82.7,24.2V24h-0.1L82.7,24.2z M82.8,2.8
	l-0.1,0.4l0.1,0.1L82.9,3L82.8,2.8z M82.8,26.4v-0.1h-0.1L82.8,26.4z M83,10c0,0.1,0,0.2,0.1,0.2L83,10z M83.2,6.7L83.2,6.7l0.1-0.1
	h-0.1L83.2,6.7z M83.2,12v-0.1h-0.1L83.2,12z M83.2,13.2c0.1,0.3,0.2,0.5,0.3,0.7C83.4,13.7,83.3,13.4,83.2,13.2L83.2,13.2z
	 M83.3,17.3l-0.1,0.2h0.1L83.3,17.3L83.3,17.3z M83.3,11.2L83.3,11.2l0.1-0.2h-0.1L83.3,11.2z M83.5,16.1V16h-0.1L83.5,16.1z
	 M84.2,3.3c-0.2,0.1-0.5,0.2-0.7,0.4c0.1,0,0.1,0.1,0.2,0.1C84,3.8,84.1,3.6,84.2,3.3L84.2,3.3z M83.6,16.9v-0.1h-0.1L83.6,16.9z
	 M83.9,7.4c0.1,0.2,0.3,0.3,0.5,0.4C84.3,7.6,84.1,7.5,83.9,7.4L83.9,7.4z M84.2,4.1V4h-0.1L84.2,4.1z M84.2,10
	c0,0.2,0.2,0.3,0.3,0.4C84.5,10.3,84.4,10.1,84.2,10L84.2,10z M84.3,4.9V4.8h-0.1L84.3,4.9z M85.8,1.1c0,0.1,0.1,0.2,0.2,0.3
	L85.8,1.1z M85.8,1.7v0.1V1.7L85.8,1.7z M87.1,0.4V0.2H87L87.1,0.4z"/>
<path class="st3" d="M37.3,10.2l0.1,0.2l0.1-0.2c0-0.2,0-0.4-0.1-0.6L37.3,10.2z"/>
<polygon class="st3" points="37.4,7.3 37.5,7.4 37.5,7.2 37.4,7.1 "/>
<path class="st3" d="M39.3,12l0-1.6c-0.1-0.3-0.1-0.5-0.3-0.8c0,0.4,0.1,0.8,0.2,1.2l0,0.4L39.3,12z"/>
<path class="st3" d="M44,28.5l-0.3-1.2c-0.1-0.4-0.2-0.8-0.3-1.2c-0.1-0.4-0.2-0.8-0.3-1.1c-0.1-0.4-0.2-0.8-0.3-1.2l-1.7-6.7
	C41,16.7,41,16.3,40.9,16H42l0.9-0.3c0.2-0.2,0.4-0.5,0.6-0.8c0.1-0.5,0.1-1,0.2-1.4V2.1c-0.1-0.4-0.2-0.8-0.3-1.2
	c-0.2-0.3-0.4-0.5-0.7-0.7l-0.5-0.1h-8.5v1.6l0,0.1l-0.4-0.1l-0.1-0.3l0,0.2L33,2.7l-0.5-0.5l0.2,1.7L32,3.3v0.6l-0.9-0.2l0.2,1
	l-1.5-1.3l0.8,2L30,6.5l-0.6,0.2l0.5,0.9l-0.1,0.2l0.5,0.7L29.5,9l0.6,0.4l-0.4,0.4l0.5,0.9c0,0,1-0.1,1,0.1s-0.4,0.2-0.4,0.3
	s-1.2,1.4-1.2,1.4l1.7-0.7l0.2,0.9l0.5-0.6v0.6l0.8-0.1v1l0.3-0.4v-0.2l0.6-0.2v10.2c0,0.4,0.2,0.8,0.4,1.1
	c-0.1,0.1-0.3,0.2-0.4,0.2v3.3c0,0.5,0,1,0.1,1.5h3V10.8c0-0.5,0-1,0.1-1.4l0.3-1.2l0-0.8l0-0.7c0-0.5-0.1-0.9-0.2-1.4
	c-0.2-0.4-0.2-0.8-0.3-1.2l0.2-0.1c0.3,0,0.5,0,0.8,0.1l0,0.5c0-0.2,0.2-0.4,0.3-0.6h2.6v8.1l0,1.1h-1.3L39,12.9L37.6,13l0,0.6v1.6
	c0,0.4,0.1,0.9,0.3,1.3l1.2,4.7c0.1,0.4,0.2,0.8,0.3,1.2l0.3,1.2c0.1,0.4,0.2,0.8,0.3,1.2l0.6,2.3c0.1,0.4,0.2,0.8,0.3,1.2
	c0.1,0.5,0.3,0.7,0.6,0.8h2.9L44,28.5z M34.3,15c-0.1-0.1-0.1-0.2-0.1-0.3l0.2,0.1L34.3,15z M36.4,27.1l-0.3-0.4
	C36.3,26.8,36.4,27,36.4,27.1L36.4,27.1z M36.4,27.4l0-0.2L36.4,27.4L36.4,27.4z"/>
<polygon class="st3" points="29,13.3 29.8,13.8 30.2,14.2 30.6,14.3 30.6,12.9 29.7,13.1 "/>
<path class="st3" d="M31.3,3.7h-0.1v0.2C31.2,3.8,31.2,3.7,31.3,3.7z"/>
<polygon class="st3" points="30,3.5 30,3.6 30,3.5 29.8,3.3 29.8,4 30.5,4 "/>
<path class="st3" d="M29.7,12.4l-0.2,0.2l0.8-0.2L29.7,12.4z"/>
<path class="st3" d="M26,24.8v-8.6l0.6-0.1H30l0.6-0.1v-0.9c-0.1-0.2-0.1-0.4-0.3-0.6L30,14.2l-0.9-0.7l-0.2-0.1l-0.8,0.2l0.4-0.5
	l0.1-0.1c0-0.2,0-0.3,0.1-0.4l0.1,0.3l0.3-0.3h-0.5c-0.1,0-0.3,0-0.4-0.1h-0.7l0,0.1l-0.4-0.1h-0.7c-0.2,0-0.3-0.1-0.4-0.4l0-0.2
	l0-0.6V8.3c0-0.2-0.1-0.4-0.2-0.6L26,7.2l0-1.7V4.6c0-0.2,0.1-0.5,0.3-0.6h3.1l0-0.6l-0.1-1.2L30.1,3l0.5,0.4L30.5,3l0.7,0.2h0.1
	V0.6c0-0.3-0.1-0.5-0.3-0.6h-6.1l-0.5,0.1l-0.2-0.1h-1.4v9.7l0,0.2l0,0.6V29c0.2,0.1,0.4,0.1,0.6,0.1H31c0.2,0,0.4-0.2,0.4-0.4v-3.4
	h-5.1C26.1,25.3,26,25.1,26,24.8z M30.2,16v0.1V16L30.2,16z M30,14.7c-0.2-0.1-0.3-0.3-0.4-0.5C29.8,14.3,29.9,14.5,30,14.7z
	 M29.4,15c0.2,0.1,0.3,0.3,0.4,0.4c0,0.1-0.1,0.1-0.1,0.1l-0.3-0.2c-0.2-0.1-0.3-0.2-0.4-0.4L29.4,15z M28.4,14.7
	c0.1,0,0.1,0.1,0.1,0.1L28.3,15L28.4,14.7z M28,14.7c0,0.1-0.1,0.2-0.2,0.3L28,14.7z M29.3,1.4c-0.2-0.1-0.5-0.3-0.6-0.6L29.3,1.4z
	 M26.2,0.6c-0.1-0.1-0.2-0.3-0.3-0.4C26,0.3,26.1,0.5,26.2,0.6z M24.5,5.2v0.2V5.2L24.5,5.2z M24.3,0.5v0.1V0.5L24.3,0.5z M24.3,6.4
	C24.1,6.2,24,6,23.9,5.8C24,6,24.2,6.2,24.3,6.4z M23.1,0.9l0,0.2h-0.1L23.1,0.9z M23.1,12.3l0-0.1h0V12.3z M23.9,9.1h-0.1l0-0.1h0
	L23.9,9.1z M24.1,8.7l0.2,0.4C24.2,9,24.1,8.9,24.1,8.7L24.1,8.7z M24,7.6l-0.1,0.2c-0.1-0.1-0.2-0.2-0.3-0.4l0.7,0.2l0.4,0.5
	C24.3,8,24.2,7.8,24,7.6z M24.9,13.4l0.1-0.1C25,13.3,25,13.4,24.9,13.4L24.9,13.4z M25.3,6.1c0-0.1,0.1-0.3,0.1-0.4
	c0.1,0.2,0.2,0.4,0.2,0.7C25.5,6.3,25.4,6.2,25.3,6.1L25.3,6.1z M26,9.9V10V9.9L26,9.9z"/>
</svg>
