<?xml version="1.0" encoding="utf-8"?>
<!-- Generator: Adobe Illustrator 21.0.2, SVG Export Plug-In . SVG Version: 6.00 Build 0)  -->
<svg version="1.1" id="Слой_1" xmlns="http://www.w3.org/2000/svg" xmlns:xlink="http://www.w3.org/1999/xlink" x="0px" y="0px"
	 viewBox="0 0 28 32" style="enable-background:new 0 0 28 32;" xml:space="preserve">
<style type="text/css">
	.st0{fill:#B19354;}
</style>
<title>1</title>
<path class="st0" d="M13.5,27H3.1c0,0,0,0,0,0c-0.8,0-1.4-0.6-1.4-1.4V3.1c0-0.8,0.6-1.4,1.4-1.4c0,0,0,0,0,0h19.2c0,0,0,0,0,0
	c0.8,0,1.4,0.6,1.4,1.4v11.4c0,0.3-0.3,0.6-0.6,0.6s-0.6-0.3-0.6-0.6V3.1C22.4,3,22.4,3,22.3,3c0,0,0,0,0,0H3.1c0,0,0,0,0,0
	C3,3,3,3,3,3.1v22.5c0,0.1,0.1,0.1,0.1,0.1c0,0,0,0,0,0h10.4c0,0,0,0,0,0c0.3,0,0.6,0.3,0.6,0.6S13.8,27,13.5,27
	C13.5,27,13.5,27,13.5,27L13.5,27L13.5,27z"/>
<path class="st0" d="M6.1,5h13.2v1.1H6.1C6.1,6.1,6.1,5,6.1,5z"/>
<path class="st0" d="M6.1,7.1h13.2v1.1H6.1C6.1,8.3,6.1,7.1,6.1,7.1z"/>
<path class="st0" d="M6.1,9.2h13.2v1.1H6.1C6.1,10.4,6.1,9.2,6.1,9.2z"/>
<path class="st0" d="M20.7,14.1c0.1,0.2,0.2,0.5,0.2,0.7c0,0.2,0.1,0.5,0.1,0.7c0,0.5,0.2,0.9,0.5,1.3c0.1,0.1,0.2,0.3,0.3,0.4
	c0.4,0.6,0.4,1.3,0,1.9c-0.4,0.6-0.7,1.3-0.6,2c0,0.9-0.4,1.4-1.2,1.7c-0.7,0.2-1.2,0.6-1.6,1.2c-0.5,0.7-1.2,1-2,0.7
	c-0.7-0.2-1.3-0.2-2,0c-1,0.3-1.5,0.1-2.1-0.7c-0.4-0.5-0.9-0.9-1.5-1.1c-0.2-0.1-0.3-0.1-0.4-0.2l0,0c-0.6-0.2-0.9-0.7-1-1.3
	c0-0.1,0-0.1,0-0.2v0c0-0.8-0.2-1.5-0.7-2.1c-0.5-0.7-0.5-1.3,0-2c0.4-0.6,0.6-1.3,0.6-2c0-0.9,0.4-1.4,1.2-1.7
	c0.7-0.2,1.2-0.6,1.6-1.2c0.5-0.7,1.2-1,2.1-0.7c0.7,0.2,1.3,0.2,2,0c0.8-0.3,1.5-0.1,2,0.6c0.4,0.6,1,1,1.8,1.2
	C20.2,13.6,20.5,13.8,20.7,14.1L20.7,14.1L20.7,14.1z M19.4,15.1c-1.8-2.3-5-2.8-7.4-1.1c-2.3,1.7-2.8,5-1.1,7.3
	c1.8,2.4,5.1,2.9,7.4,1.1C20.7,20.8,21.1,17.5,19.4,15.1L19.4,15.1z"/>
<path class="st0" d="M26,23.9c-0.6,0.3-1.2,0.6-1.7,0.9c-0.1,0.1-0.2,0.2-0.2,0.3c-0.1,0.6-0.2,1.1-0.3,1.7
	c-1.3-0.9-2.7-1.8-4.1-2.7c1-0.8,1.9-1.6,2.2-2.9C23.2,22,24.6,22.9,26,23.9z"/>
<path class="st0" d="M16,25.5c1.3,0.1,2.4-0.5,3.4-1.3c0.5,1.6,1,3.2,1.5,4.7c-0.6-0.1-1.1-0.1-1.6-0.2c-0.2,0-0.3,0-0.5,0.2
	c-0.4,0.5-0.9,0.9-1.3,1.4C17,28.7,16.5,27.1,16,25.5L16,25.5z"/>
<path class="st0" d="M18.3,19.1c0,0,0,0.1,0,0.1c0,0.2-0.1,0.4-0.4,0.5l0,0l-1.6,0.4c0,0-0.1,0-0.1,0c-0.3,0-0.5-0.2-0.5-0.5
	c0-0.2,0.1-0.4,0.4-0.5l0,0l1.6-0.4c0,0,0.1,0,0.1,0C18,18.7,18.2,18.9,18.3,19.1L18.3,19.1L18.3,19.1z M17.9,17.7c0,0,0,0.1,0,0.1
	c0,0.2-0.1,0.4-0.4,0.5l0,0l-1.6,0.4c0,0-0.1,0-0.1,0c-0.3,0-0.5-0.2-0.5-0.5c0-0.2,0.2-0.4,0.4-0.5l0,0l1.6-0.4c0,0,0.1,0,0.1,0
	C17.7,17.4,17.8,17.5,17.9,17.7L17.9,17.7L17.9,17.7z M15.3,16.5L17,16c0,0,0.1,0,0.1,0c0.3,0,0.5,0.2,0.5,0.5
	c0,0.2-0.1,0.4-0.4,0.5l0,0l-1.6,0.4c0,0-0.1,0-0.1,0c-0.3,0-0.5-0.2-0.5-0.5C15,16.7,15.1,16.5,15.3,16.5L15.3,16.5L15.3,16.5z
	 M14.5,22c-0.9,0.2-2.4-0.6-2.7-1.8s0.2-2.1,0.2-2.1l1.1-1.9c0,0,0.2-0.5,0.2-0.9s0-0.5,0-0.5s0-0.6,0.5-0.6s0.8,0.2,0.8,0.4
	c0,0,0,0,0,0c0.3,1.1-0.1,2-0.1,2c-0.1,0.1-0.1,0.3-0.1,0.4c0,0.1,0,0.1,0,0.2l0,0c0.1,0.4,0.5,0.6,0.5,0.6s-0.3,0.3-0.2,0.8
	s0.6,0.6,0.6,0.6s-0.4,0.4-0.3,0.8s0.5,0.6,0.5,0.6s-0.3,0.4-0.2,0.8s0.3,0.4,0.3,0.4S15.4,21.8,14.5,22L14.5,22z M18.3,21l-1.6,0.4
	c0,0-0.1,0-0.1,0c-0.3,0-0.5-0.2-0.5-0.5c0-0.2,0.1-0.4,0.4-0.5l0,0l1.6-0.4c0,0,0.1,0,0.1,0c0.3,0,0.5,0.2,0.5,0.5
	C18.6,20.8,18.5,21,18.3,21L18.3,21L18.3,21z"/>
</svg>
