<?xml version="1.0" encoding="utf-8"?>
<!-- Generator: Adobe Illustrator 21.0.2, SVG Export Plug-In . SVG Version: 6.00 Build 0)  -->
<svg version="1.1" id="Слой_1" xmlns="http://www.w3.org/2000/svg" xmlns:xlink="http://www.w3.org/1999/xlink" x="0px" y="0px"
	 viewBox="0 0 32 32" style="enable-background:new 0 0 32 32;" xml:space="preserve">
<style type="text/css">
	.st0{fill:#B89D65;}
</style>
<title>111</title>
<path class="st0" d="M32,16.3C32,16.3,32,16.3,32,16.3c0-0.4-0.3-0.7-0.7-0.7c0,0,0,0,0,0h-0.2l-3-5.8c-0.1-0.2-0.4-0.4-0.7-0.4
	c0,0,0,0,0,0h-5.1l0.2-1.5c0-0.1,0-0.1,0-0.2c0-1.2-0.9-2.1-2.1-2.1c0,0,0,0,0,0h0H4.6c-0.4,0-0.7,0.3-0.8,0.7v0L3.6,7.5h9
	c0,0,0,0,0,0c0.6,0,1,0.5,1,1c0,0,0,0,0,0v0c0,0.6-0.5,1.1-1.1,1.1h-3v0H0.8C0.4,9.6,0,10,0,10.4v0c0,0,0,0,0,0
	c0,0.4,0.3,0.7,0.7,0.7c0,0,0,0,0,0h11.7c0.5,0.1,0.9,0.5,0.9,1.1c0,0,0,0,0,0v0c0,0.6-0.5,1.1-1.2,1.1H4.1c-0.4,0-0.8,0.3-0.8,0.8
	v0c0,0,0,0,0,0c0,0.4,0.3,0.7,0.7,0.7c0,0,0,0,0,0h8C12.6,15,13,15.5,13,16c0,0,0,0,0,0v0c0,0.6-0.5,1.1-1.2,1.1H1.9
	c-0.4,0-0.8,0.3-0.8,0.8v0c0,0,0,0,0,0c0,0.4,0.3,0.7,0.7,0.7c0,0,0,0,0,0h0.7l-0.3,2.7c0,0.1,0,0.1,0,0.2c0,1.2,0.9,2.1,2.1,2.1
	c0,0,0,0,0,0h0H5c0.3,1.6,1.6,2.7,3.3,2.7c0,0,0,0,0,0h0c1.7,0,3-1.2,3.4-2.7l0,0h7.1c0.6,0,1.1-0.2,1.6-0.6l0,0
	c0.4,0.4,0.9,0.6,1.5,0.6c0,0,0,0,0,0H22c0.3,1.6,1.6,2.7,3.3,2.7c0,0,0,0,0,0h0c1.7,0,3-1.2,3.4-2.7l0,0h0.5c1.2,0,2.3-1,2.4-2.2
	L32,16.3C32,16.4,32,16.4,32,16.3C32,16.4,32,16.3,32,16.3C32,16.3,32,16.3,32,16.3L32,16.3z M8.3,24.9C8.3,24.9,8.3,24.9,8.3,24.9
	c-1,0-1.8-0.8-1.8-1.8c0,0,0,0,0-0.1v0c0-1,0.9-1.9,1.9-1.9h0c0,0,0,0,0,0c1,0,1.8,0.8,1.8,1.8c0,0,0,0,0,0.1v0
	C10.2,24.1,9.4,24.9,8.3,24.9L8.3,24.9L8.3,24.9z M25.3,24.9C25.3,24.9,25.3,24.9,25.3,24.9c-1,0-1.8-0.8-1.8-1.8c0,0,0,0,0-0.1v0
	c0-1,0.9-1.9,1.9-1.9h0c0,0,0,0,0,0c1,0,1.8,0.8,1.8,1.8c0,0,0,0,0,0.1v0C27.2,24.1,26.3,24.9,25.3,24.9L25.3,24.9z M30,21.4
	c-0.1,0.4-0.4,0.8-0.9,0.8h0h-0.5c-0.3-1.5-1.7-2.6-3.2-2.6c0,0,0,0,0,0h0c-1.6,0-2.9,1.1-3.4,2.5l0,0h-0.2c0,0,0,0,0,0
	c-0.2,0-0.4-0.1-0.5-0.2l0,0c-0.1-0.1-0.2-0.3-0.2-0.4c0,0,0-0.1,0-0.1v0l1-10.6h2.2L24,14.8c0,0.1,0,0.1,0,0.2
	c0,1.2,0.9,2.1,2.1,2.1c0,0,0,0,0,0h0h4.3L30,21.4z"/>
</svg>
