<!-- Generated by IcoMoon.io -->
<svg version="1.1" xmlns="http://www.w3.org/2000/svg" width="37" height="32" viewBox="0 0 37 32">
<title>3</title>
<path d="M36.616 7.068q-3.801-3.286-7.61-6.562c-0.209-0.18-0.438-0.337-0.658-0.505h-0.348c-0.184 0.167-0.394 0.314-0.55 0.504-0.873 1.070-1.733 2.151-2.598 3.227-0.097 0.127-0.198 0.239-0.307 0.343l-0.001 0.001c-0.29 0.26-0.603 0.307-0.93 0.101-1.517-0.957-3.203-1.239-4.955-1.275-2.399-0.048-4.754 0.299-7.095 0.785-0.606 0.126-1.079 0-1.535-0.417-0.704-0.646-1.448-1.249-2.175-1.869-0.089-0.075-0.188-0.149-0.29-0.217l-0.012-0.007c-0.454-0.301-0.845-0.297-1.234 0.085-0.352 0.334-0.669 0.699-0.948 1.092l-0.015 0.023c-1.983 2.943-3.723 6.023-5.164 9.268-0.061 0.138-0.126 0.275-0.19 0.413v0.406c0.158 0.136 0.301 0.297 0.478 0.402 0.489 0.29 1 0.543 1.489 0.833 0.838 0.497 1.648 1.043 2.6 1.318 0.141 0.041 0.293 0.228 0.341 0.379 0.136 0.431 0.208 0.882 0.328 1.319 0.097 0.353 0.014 0.638-0.221 0.907-0.406 0.468-0.806 0.939-1.178 1.432-0.336 0.447-0.57 0.952-0.508 1.532 0.075 0.691 0.464 1.159 1.118 1.379 0.69 0.232 1.326 0.107 1.835-0.431 1.101-1.166 2.19-2.343 3.281-3.519 0.412-0.444 0.577-0.96 0.362-1.548-0.228-0.625-0.664-1.036-1.329-1.162-0.574-0.109-1.089 0.058-1.559 0.384-0.194 0.136-0.383 0.276-0.601 0.434-0.1-0.454-0.203-0.866-0.282-1.282-0.26-1.371-0.348-0.928 0.34-2.169 1.194-2.163 2.402-4.318 3.581-6.489 0.381-0.703 0.913-1.115 1.714-1.21 0.661-0.078 1.317-0.199 1.974-0.308 2.377-0.394 4.757-0.552 7.152-0.19 0.101 0.020 0.185 0.042 0.266 0.067l-0.018-0.005c-0.036 0.057-0.095 0.097-0.163 0.107l-0.001 0c-0.89 0.116-1.78 0.239-2.671 0.341-0.769 0.086-1.515 0.253-2.136 0.734-0.762 0.591-1.507 1.209-2.224 1.855-0.673 0.605-0.608 1.28 0.129 1.817 1.070 0.78 2.21 0.943 3.445 0.419 0.397-0.169 0.808-0.339 1.229-0.413 1.179-0.208 2.368-0.354 3.548-0.548 0.447-0.074 0.804 0.030 1.144 0.328q4.334 3.805 8.679 7.594c0.135 0.115 0.257 0.233 0.372 0.359l0.003 0.003c0.459 0.526 0.492 1.093 0.098 1.67-0.344 0.504-0.835 0.838-1.381 1.061-0.198 0.081-0.484 0-0.714-0.068-0.147-0.042-0.269-0.182-0.393-0.29-1.074-0.928-2.145-1.863-3.221-2.788-0.188-0.163-0.399-0.309-0.625-0.43l-0.018-0.009c-0.286-0.15-0.732-0.034-0.9 0.195-0.154 0.209-0.126 0.461 0.125 0.761 0.188 0.226 0.388 0.428 0.603 0.613l0.007 0.006q1.675 1.431 3.362 2.844c0.303 0.254 0.415 0.558 0.366 0.948-0.079 0.626-0.359 1.155-0.74 1.641-0.638 0.812-0.895 0.845-1.703 0.199q-2.029-1.619-4.048-3.243c-0.047-0.042-0.099-0.083-0.153-0.122l-0.006-0.004c-0.274-0.174-0.565-0.132-0.83-0.007-0.238 0.112-0.217 0.367-0.211 0.59 0.010 0.329 0.249 0.512 0.475 0.692q1.963 1.558 3.933 3.107c0.911 0.721 0.761 2.394-0.269 2.948-0.126 0.067-0.271 0.12-0.425 0.149l-0.010 0.002c-0.522 0.101-0.962-0.088-1.361-0.418-1.229-1.015-2.453-2.036-3.703-3.025-0.317-0.251-0.711-0.417-1.090-0.573-0.293-0.12-0.528 0.038-0.619 0.344-0.125 0.42 0.086 0.701 0.392 0.946q2.148 1.722 4.293 3.447c0.383 0.308 0.424 0.47 0.232 0.923-0.275 0.652-0.812 1.002-1.432 1.275-0.482 0.212-0.906 0.162-1.333-0.147-1.069-0.779-2.153-1.538-3.223-2.319-0.441-0.321-0.861-0.672-1.308-1.023 0.264-0.29 0.507-0.552 0.74-0.821 0.215-0.248 0.441-0.49 0.625-0.759 0.481-0.702 0.297-1.719-0.392-2.261-0.649-0.513-1.663-0.454-2.213 0.174q-1.643 1.873-3.238 3.789c-0.171 0.216-0.279 0.49-0.29 0.788l-0 0.002c-0.013 0.95 0.95 1.762 1.89 1.651 0.463-0.056 0.866-0.276 1.158-0.598l0.001-0.002c0.283-0.299 0.562-0.601 0.85-0.91 0.119 0.083 0.214 0.147 0.307 0.215 1.055 0.783 2.103 1.576 3.166 2.346 0.73 0.529 1.417 1.138 2.329 1.357h0.754c0.461-0.19 0.952-0.327 1.375-0.58 0.733-0.436 1.276-1.127 1.511-1.948l0.006-0.023c0.072-0.249 0.187-0.43 0.475-0.473 1.581-0.237 2.499-1.189 2.715-2.802 0.019-0.096 0.034-0.214 0.043-0.334l0.001-0.011c0.009-0.366 0.184-0.583 0.515-0.758 1.192-0.628 1.809-1.691 2.032-2.972 0.103-0.588 0.303-0.902 0.913-1.101 1.432-0.464 2.351-1.929 2.265-3.391-0.038-0.643-0.323-1.137-0.843-1.507-0.274-0.196-0.535-0.409-0.823-0.631 0.473-0.578 0.843-1.261 1.071-2.007l0.011-0.042c0.147-0.508 0.267-1.027 0.362-1.547 0.076-0.439 0.274-0.822 0.558-1.123l-0.001 0.001c0.684-0.735 1.37-1.468 2.050-2.208 0.174-0.19 0.326-0.399 0.489-0.599v-0.348c-0.157-0.177-0.301-0.375-0.481-0.53zM7.206 16.716s0.952-0.895 1.616-0.202-0.635 1.731-0.635 1.731-2.639 3.417-3.26 3.001c0 0-0.952-0.232-0.692-1.096s2.971-3.434 2.971-3.434zM9.256 4.948q-2.315 4.174-4.63 8.348c-0.050 0.091-0.106 0.179-0.174 0.29l-2.919-1.701c1.638-3.304 3.317-6.556 5.54-9.521 0.413 0.388 0.803 0.759 1.199 1.123 0.283 0.261 0.58 0.511 0.862 0.773 0.258 0.234 0.28 0.406 0.122 0.69zM16.526 26.035l-2.25 2.452s-0.406 0.58-1.125 0.174c0 0-0.635-0.648 0-1.42s2.856-3.34 2.856-3.34 1.010-0.569 1.241 0.348-0.721 1.787-0.721 1.787zM32.74 12.215c-0.375 0.866-0.952 2.626-1.471 2.308s-6.029-5.165-6.029-5.165l-1.449-1.384s-0.627-0.406-1.551-0.232-4.099 0.721-4.099 0.721-0.721 0.317-1.212 0.58-2.136-0.146-2.164-0.638c0 0-0.202-0.29 0.606-0.923s1.556-1.303 2.136-1.502 6.521-0.603 6.521-0.603 1.212-0.092 2.337 0.603 5.885 4.763 5.885 4.763 0.865 0.606 0.49 1.471zM33.275 10.179l-7.194-5.947c0.666-0.794 1.31-1.565 1.959-2.328 0.193-0.227 0.386-0.093 0.555 0.042 0.746 0.598 1.503 1.184 2.226 1.809 1.528 1.318 3.038 2.658 4.555 3.99 0.022 0.026 0.043 0.054 0.061 0.085l0.001 0.003z"></path>
<path d="M15.69 22.060l-0.075-0.034c-0.015-0.711-0.519-1.3-1.189-1.445l-0.010-0.002c-0.825-0.187-1.522 0.046-2.083 0.685-1.128 1.283-2.261 2.561-3.386 3.846-0.121 0.139-0.228 0.296-0.314 0.466l-0.006 0.013c-0.118 0.229-0.187 0.499-0.187 0.785 0 0.843 0.6 1.547 1.397 1.706l0.011 0.002c0.696 0.133 1.217-0.208 1.647-0.704 1.275-1.475 2.544-2.953 3.792-4.45 0.197-0.238 0.271-0.577 0.402-0.868zM13.756 23.64l-2.857 3.317s-0.779 0.635-1.299 0c0 0-0.664-0.659 0-1.527s3.406-3.922 3.406-3.922 0.952-0.649 1.5 0.166-0.75 1.967-0.75 1.967z"></path>
<path d="M12.703 19.614c0-0.686-0.414-1.337-0.986-1.576-0.632-0.263-1.456-0.116-1.93 0.392-0.885 0.943-1.77 1.888-2.617 2.865-0.404 0.456-0.767 0.966-1.073 1.513l-0.022 0.044c-0.519 0.969-0.029 2.095 0.998 2.483 0.522 0.197 0.905 0.094 1.279-0.318 1.359-1.504 2.689-3.035 4.028-4.557 0.2-0.215 0.323-0.505 0.323-0.823 0-0.008-0-0.016-0-0.024l0 0.001zM11.362 20.522l-3.116 3.467s-0.828 1.134-1.5 0c0 0-0.144-0.808 0.548-1.645s2.827-3.145 2.827-3.145 0.837-0.837 1.442-0.202-0.202 1.524-0.202 1.524z"></path>
</svg>
