<?xml version="1.0" encoding="utf-8"?>
<!-- Generator: Adobe Illustrator 21.0.2, SVG Export Plug-In . SVG Version: 6.00 Build 0)  -->
<svg version="1.1" id="Слой_1" xmlns="http://www.w3.org/2000/svg" xmlns:xlink="http://www.w3.org/1999/xlink" x="0px" y="0px"
	 viewBox="0 0 37 32" style="enable-background:new 0 0 37 32;" xml:space="preserve">
<style type="text/css">
	.st0{fill:none;stroke:#B19354;stroke-width:1.7467;stroke-linecap:square;stroke-miterlimit:10;}
</style>
<title>5</title>
<path class="st0" d="M9.5,0.9C9.5,0.9,9.5,0.9,9.5,0.9c-4.8,0-8.7,3.9-8.7,8.7c0,2.4,1,4.6,2.5,6.1l15.1,15.1l15.1-15.1
	c1.6-1.6,2.5-3.7,2.5-6.1c0-4.8-3.9-8.7-8.7-8.7c-2.4,0-4.6,1-6.2,2.6l0,0l-2.8,2.8l-2.8-2.8C14.1,1.8,12,0.9,9.5,0.9
	C9.6,0.9,9.6,0.9,9.5,0.9L9.5,0.9L9.5,0.9z"/>
</svg>
