<!-- Generated by IcoMoon.io -->
<svg version="1.1" xmlns="http://www.w3.org/2000/svg" width="42" height="32" viewBox="0 0 42 32">
<title>cart</title>
<path d="M34.749 25.567c1.776 0 3.216 1.44 3.216 3.216s-1.44 3.216-3.216 3.216-3.216-1.44-3.216-3.216c0-0.888 0.36-1.693 0.942-2.275v0c0.582-0.582 1.386-0.942 2.274-0.942 0 0 0 0 0.001 0h-0zM36.091 27.442c-0.343-0.344-0.818-0.556-1.342-0.556-1.048 0-1.897 0.849-1.897 1.897s0.849 1.897 1.897 1.897c1.047 0 1.896-0.849 1.897-1.896v-0c0-0 0-0.001 0-0.001 0-0.524-0.212-0.998-0.555-1.341v0z"></path>
<path d="M15.808 24.752c-0.112 0.215-0.333 0.359-0.587 0.359-0.364 0-0.66-0.295-0.66-0.66 0-0.142 0.045-0.273 0.121-0.381l-0.001 0.002 0.967-1.593c0.118-0.191 0.325-0.316 0.562-0.316h0v-0.006h20.029c0.364 0 0.66 0.295 0.66 0.66s-0.295 0.66-0.66 0.66v0h-19.662z"></path>
<path d="M14.614 13.251c-0.364 0-0.66-0.295-0.66-0.66s0.295-0.66 0.66-0.66v0h25.128l0.538-2.868c0.078-0.283 0.334-0.488 0.637-0.488 0.364 0 0.66 0.295 0.66 0.66 0 0.024-0.001 0.048-0.004 0.072l0-0.003-0.628 3.354c-0.035 0.335-0.315 0.594-0.657 0.594-0.001 0-0.002 0-0.004 0h-25.671z"></path>
<path d="M40.928 8.522c0.364 0 0.66 0.295 0.66 0.66s-0.295 0.66-0.66 0.66v0h-27.804c-0.364 0-0.66-0.295-0.66-0.66s0.295-0.66 0.66-0.66v0z"></path>
<path d="M13.656 20.068c-0.364 0-0.66-0.295-0.66-0.66s0.295-0.66 0.66-0.66v0h24.81l0.538-2.868c0.074-0.289 0.333-0.5 0.64-0.5 0.364 0 0.66 0.295 0.66 0.66 0 0.029-0.002 0.057-0.005 0.085l0-0.003-0.628 3.354c-0.035 0.335-0.315 0.594-0.657 0.594-0.001 0-0.002 0-0.004 0h-25.354z"></path>
<path d="M5.585 0c0.364 0 0.66 0.295 0.66 0.66s-0.295 0.66-0.66 0.66v0h-4.925c-0.364 0-0.66-0.295-0.66-0.66s0.295-0.66 0.66-0.66v0z"></path>
<path d="M14.262 19.149c0.027 0.069 0.042 0.149 0.042 0.232 0 0.364-0.295 0.66-0.66 0.66-0.259 0-0.484-0.15-0.591-0.367l-0.002-0.004-8.073-18.75c-0.025-0.067-0.040-0.145-0.040-0.226 0-0.364 0.295-0.66 0.66-0.66 0.257 0 0.48 0.147 0.589 0.362l0.002 0.004z"></path>
<path d="M39.651 15.34c0.018-0.002 0.040-0.003 0.062-0.003 0.364 0 0.66 0.295 0.66 0.66s-0.295 0.66-0.66 0.66c-0.022 0-0.043-0.001-0.064-0.003l0.003 0h-23.544c-0.268-0.001-0.498-0.161-0.6-0.39l-0.002-0.004-1.493-3.408c-0.024-0.065-0.037-0.14-0.037-0.218 0-0.364 0.295-0.66 0.66-0.66 0.252 0 0.471 0.141 0.582 0.349l0.002 0.004 1.32 3.014z"></path>
<path d="M2.755 3.806c0.048 0.089 0.076 0.195 0.076 0.307 0 0.364-0.295 0.66-0.66 0.66-0.286 0-0.53-0.182-0.621-0.437l-0.001-0.005-1.492-3.409c-0.047-0.088-0.074-0.193-0.074-0.304 0-0.364 0.295-0.66 0.66-0.66 0.285 0 0.528 0.181 0.62 0.435l0.001 0.005z"></path>
<path d="M13.728 8.92c0.024 0.065 0.037 0.14 0.037 0.218 0 0.364-0.295 0.66-0.66 0.66-0.252 0-0.471-0.141-0.582-0.349l-0.002-0.004-1.492-3.409c-0.034-0.077-0.054-0.167-0.054-0.262 0-0.364 0.294-0.659 0.658-0.66h29.934c0.364 0 0.66 0.295 0.66 0.66s-0.295 0.66-0.66 0.66v0h-28.928z"></path>
<path d="M3.761 3.409c0.364 0 0.66 0.295 0.66 0.66s-0.295 0.66-0.66 0.66v0h-1.61c-0.364 0-0.66-0.295-0.66-0.66s0.295-0.66 0.66-0.66v0z"></path>
<path d="M12.591 25.567c1.776 0 3.216 1.44 3.216 3.216s-1.44 3.216-3.216 3.216-3.216-1.44-3.216-3.216c0-0.888 0.36-1.693 0.942-2.275v0c0.582-0.582 1.386-0.942 2.274-0.942 0 0 0 0 0.001 0h-0zM13.933 27.442c-0.343-0.344-0.818-0.556-1.342-0.556-1.048 0-1.897 0.849-1.897 1.897s0.849 1.897 1.897 1.897c1.047 0 1.896-0.849 1.897-1.896v-0c0-0 0-0 0-0 0-0.524-0.212-0.998-0.556-1.342v0z"></path>
</svg>
