<!-- Generated by IcoMoon.io -->
<svg version="1.1" xmlns="http://www.w3.org/2000/svg" width="41" height="32" viewBox="0 0 41 32">
<title>cart-2</title>
<path fill="none" stroke="#000" stroke-width="0.962" stroke-miterlimit="10" stroke-linecap="square" stroke-linejoin="miter" d="M0.481 0.481h6.974l7.922 20.485"></path>
<path fill="none" stroke="#000" stroke-width="0.962" stroke-miterlimit="10" stroke-linecap="square" stroke-linejoin="miter" d="M34.15 26.935h-21.644l2.886-5.772h20.057l4.983-14.43h-26.483"></path>
<path fill="none" stroke="#000" stroke-width="0.962" stroke-miterlimit="10" stroke-linecap="square" stroke-linejoin="miter" d="M18.138 29.86c0 0.916-0.743 1.659-1.659 1.659s-1.659-0.743-1.659-1.659c0-0.916 0.743-1.659 1.659-1.659s1.659 0.743 1.659 1.659z"></path>
<path fill="none" stroke="#000" stroke-width="0.962" stroke-miterlimit="10" stroke-linecap="square" stroke-linejoin="miter" d="M33.126 29.86c0 0.916-0.743 1.659-1.659 1.659s-1.659-0.743-1.659-1.659c0-0.916 0.743-1.659 1.659-1.659s1.659 0.743 1.659 1.659z"></path>
</svg>
