<!-- Generated by IcoMoon.io -->
<svg version="1.1" xmlns="http://www.w3.org/2000/svg" width="32" height="32" viewBox="0 0 32 32">
<title>fb-2</title>
<path d="M27 0h-22c-2.761 0-5 2.239-5 5v0 22c0 2.761 2.239 5 5 5v0h22c2.761 0 5-2.239 5-5v0-22c0-2.761-2.239-5-5-5v0zM19.43 16h-2.24v8h-3.33v-8h-1.58v-2.82h1.58v-1.83c-0.006-0.072-0.009-0.155-0.009-0.24 0-1.723 1.397-3.12 3.12-3.12 0.088 0 0.175 0.004 0.261 0.011l-0.011-0.001h2.46v2.74h-1.79c-0.011-0.001-0.023-0.001-0.036-0.001-0.376 0-0.68 0.304-0.68 0.68 0 0.032 0.002 0.064 0.007 0.095l-0-0.004v1.66h2.53z"></path>
</svg>
