<!-- Generated by IcoMoon.io -->
<svg version="1.1" xmlns="http://www.w3.org/2000/svg" width="32" height="32" viewBox="0 0 32 32">
<title>fb</title>
<path d="M26.006 0h-20c-0.004 0-0.008 0-0.012 0-3.31 0-5.994 2.684-5.994 5.994 0 0 0 0 0 0v0 20c0 0.004 0 0.008 0 0.012 0 3.31 2.684 5.994 5.994 5.994 0.004 0 0.009 0 0.013 0h19.999c0 0 0 0 0 0 3.31 0 5.994-2.684 5.994-5.994 0-0.004 0-0.009 0-0.013v0.001-20c0-3.31-2.684-5.994-5.994-5.994v0zM25.194 17.231h-3.040v11.077h-4.923v-11.077h-1.982v-3.692h1.982v-2.462c0-3.077 1.231-4.923 4.923-4.923h3.692v3.692h-2.129c-1.428 0-1.563 0.554-1.563 1.551v2.142h3.446z"></path>
</svg>
