<!-- Generated by IcoMoon.io -->
<svg version="1.1" xmlns="http://www.w3.org/2000/svg" width="100%" height="100%" viewBox="0 0 32 32">
<title>funnel</title>
<path d="M11.315 30.66v-15.696l-10.972-12.707c-0.587-0.719-0.521-2.197 0.996-2.197h29.268c1.425 0 1.755 1.306 0.996 2.197l-10.708 12.371v9.712c0 0.396-0.132 0.732-0.468 0.996l-6.849 6.321c-0.792 0.587-2.263 0.27-2.263-0.996zM4.269 2.725l9.382 10.84c0.198 0.264 0.33 0.534 0.33 0.864v13.235l4.256-3.86v-9.639c0-0.33 0.132-0.6 0.33-0.864l9.112-10.576h-23.409z"></path>
</svg>
