<!-- Generated by IcoMoon.io -->
<svg version="1.1" xmlns="http://www.w3.org/2000/svg" width="32" height="32" viewBox="0 0 32 32">
<title>google</title>
<path d="M12.75 8.77c-1.27 0-2.12 1.24-1.9 2.91 0.097 1.487 1.233 2.681 2.685 2.868l0.015 0.002c1.27 0 2-1 1.78-2.71s-1.33-3.030-2.58-3.070z"></path>
<path d="M13.29 18c-1.89 0-3.5 1.2-3.5 2.61s1.37 2.64 3.26 2.64c2.66 0 3.59-1.12 3.59-2.56 0-0 0-0.001 0-0.001 0-0.181-0.022-0.356-0.063-0.524l0.003 0.015c-0.21-0.82-1-1.26-2.070-2-0.359-0.114-0.772-0.18-1.2-0.18-0.007 0-0.014 0-0.021 0h0.001z"></path>
<path d="M27 0h-22c-2.761 0-5 2.239-5 5v0 22c0 2.761 2.239 5 5 5v0h22c2.761 0 5-2.239 5-5v0-22c0-2.761-2.239-5-5-5v0zM17.22 11.77c-0.042 1.045-0.578 1.957-1.379 2.513l-0.011 0.007c-0.8 0.62-0.95 0.88-0.95 1.41s1 1.13 1.39 1.45c1.52 1.15 1.83 1.85 1.83 3.3 0 1.78-1.92 3.55-5 3.55-2.78 0-5.1-1.11-5.1-2.89s1.92-3.7 4.66-3.7h0.86c-0.388-0.283-0.646-0.723-0.68-1.225l-0-0.005c0.009-0.339 0.1-0.655 0.255-0.93l-0.005 0.010h-0.46c-0.052 0.003-0.113 0.005-0.175 0.005-1.872 0-3.39-1.518-3.39-3.39 0-0.061 0.002-0.122 0.005-0.183l-0 0.008c0-1.94 2-3.71 4.39-3.71h4.72l-1.060 1.12h-1.24c0.815 0.545 1.344 1.462 1.344 2.502 0 0.056-0.002 0.111-0.005 0.166l0-0.008zM24 11.48h-2.18v2.18h-1.090v-2.18h-2.17v-1.090h2.17v-2.17h1.090v2.18h2.18z"></path>
</svg>
