<!-- Generated by IcoMoon.io -->
<svg version="1.1" xmlns="http://www.w3.org/2000/svg" width="32" height="32" viewBox="0 0 32 32">
<title>list-2</title>
<path d="M30.966 0.603h-29.932c-0.57 0-1.034 0.464-1.034 1.034v4.596c0 0.57 0.464 1.034 1.034 1.034h29.932c0.57 0 1.034-0.464 1.034-1.034v-4.596c0-0.57-0.464-1.034-1.034-1.034z"></path>
<path d="M30.966 12.668h-29.932c-0.57 0-1.034 0.464-1.034 1.034v4.596c0 0.57 0.464 1.034 1.034 1.034h29.932c0.57 0 1.034-0.464 1.034-1.034v-4.596c0-0.57-0.464-1.034-1.034-1.034z"></path>
<path d="M30.966 24.733h-29.932c-0.57 0-1.034 0.464-1.034 1.034v4.596c0 0.57 0.464 1.034 1.034 1.034h29.932c0.57 0 1.034-0.464 1.034-1.034v-4.596c0-0.57-0.464-1.034-1.034-1.034z"></path>
</svg>
