<!-- Generated by IcoMoon.io -->
<svg version="1.1" xmlns="http://www.w3.org/2000/svg" width="51" height="32" viewBox="0 0 51 32">
<title>mail</title>
<path d="M0.396 2.493c-0.241 0.504-0.386 1.093-0.395 1.716l-0 0.003v23.523c0.012 0.541 0.118 1.053 0.303 1.526l-0.010-0.030 13.464-13.395z"></path>
<path d="M46.943 32c0.628-0.015 1.217-0.166 1.744-0.424l-0.025 0.011-13.515-13.515-9.612 9.629-9.543-9.612-13.515 13.498c0.502 0.25 1.092 0.401 1.715 0.413l0.004 0z"></path>
<path d="M25.603 23.179l22.887-22.887c-0.459-0.182-0.99-0.289-1.546-0.292h-42.68c-0.557 0.003-1.089 0.11-1.577 0.303l0.030-0.010 15.544 15.527z"></path>
<path d="M50.915 29.232c0.178-0.448 0.284-0.967 0.292-1.51l0-0.003v-23.454c-0.013-0.626-0.157-1.216-0.407-1.746l0.011 0.026-13.326 13.292z"></path>
</svg>
