<!-- Generated by IcoMoon.io -->
<svg version="1.1" xmlns="http://www.w3.org/2000/svg" width="32" height="32" viewBox="0 0 32 32">
<title>skype</title>
<path d="M30.941 18.671c0.159-0.826 0.25-1.777 0.251-2.749v-0.001c0-0.003 0-0.007 0-0.010 0-8.358-6.775-15.133-15.133-15.133-0.005 0-0.009 0-0.014 0h0.001c-1.015 0.001-2.007 0.101-2.966 0.291l0.097-0.016h-0.007c-1.218-0.66-2.667-1.048-4.206-1.048-4.949 0-8.962 4.012-8.962 8.962 0 1.596 0.417 3.095 1.148 4.392l-0.023-0.045c-0.145 0.784-0.228 1.687-0.229 2.609v0.001c0 0.002 0 0.005 0 0.008 0 8.361 6.778 15.139 15.139 15.139 0.939 0 1.859-0.086 2.751-0.249l-0.093 0.014c1.271 0.733 2.794 1.165 4.419 1.165 4.95 0 8.963-4.013 8.963-8.963 0-1.604-0.421-3.11-1.16-4.413l0.023 0.044zM16.106 25.202c-5.381 0-7.79-2.645-7.79-4.628 0-1.017 0.751-1.729 1.786-1.729 2.302 0 1.706 3.306 6.003 3.306 2.199 0 3.414-1.191 3.414-2.417 0-0.733-0.367-1.55-1.811-1.906l-4.786-1.191c-3.855-0.967-4.555-3.050-4.555-5.009 0-4.067 3.829-5.59 7.423-5.59 3.312 0 7.217 1.833 7.217 4.271 0 1.046-0.905 1.65-1.939 1.65-1.966 0-1.604-2.72-5.562-2.72-1.965 0-3.054 0.89-3.054 2.163s1.552 1.676 2.899 1.983l3.543 0.786c3.884 0.86 4.868 3.125 4.868 5.258 0 3.306-2.537 5.774-7.657 5.774z"></path>
</svg>
