<svg aria-hidden="true" style="position: absolute; width: 0; height: 0; overflow: hidden;" version="1.1" xmlns="http://www.w3.org/2000/svg" xmlns:xlink="http://www.w3.org/1999/xlink">
<defs>
<symbol id="icon-sort-button-with-three-lines" viewBox="0 0 32 32">
<title>sort-button-with-three-lines</title>
<path d="M0 26.667h10.667v-3.556h-10.667v3.556zM0 5.333v3.556h32v-3.556h-32zM0 17.778h21.333v-3.556h-21.333v3.556z"></path>
</symbol>
<symbol id="icon-category-2" viewBox="0 0 32 32">
<title>category-2</title>
<path d="M12.308 2.461h-9.846c-0.667 0-1.244 0.244-1.731 0.731s-0.731 1.064-0.731 1.73v7.385c0 0.667 0.244 1.244 0.731 1.731s1.064 0.731 1.731 0.731h9.846c0.667 0 1.244-0.244 1.731-0.731s0.731-1.064 0.731-1.731v-7.385c0-0.667-0.244-1.244-0.731-1.731s-1.064-0.731-1.731-0.731z"></path>
<path d="M12.308 17.231h-9.846c-0.667 0-1.244 0.244-1.731 0.731s-0.731 1.064-0.731 1.731v7.385c0 0.667 0.244 1.244 0.731 1.731s1.064 0.731 1.731 0.731h9.846c0.667 0 1.244-0.244 1.731-0.731s0.731-1.064 0.731-1.731v-7.385c0-0.667-0.244-1.244-0.731-1.731s-1.064-0.731-1.731-0.731z"></path>
<path d="M31.269 3.192c-0.487-0.488-1.064-0.731-1.731-0.731h-9.846c-0.667 0-1.244 0.244-1.731 0.731s-0.731 1.064-0.731 1.731v7.385c0 0.667 0.244 1.244 0.731 1.731s1.064 0.731 1.731 0.731h9.846c0.667 0 1.244-0.244 1.731-0.731s0.731-1.064 0.731-1.731v-7.385c0-0.667-0.244-1.243-0.731-1.73z"></path>
<path d="M29.538 17.231h-9.846c-0.667 0-1.244 0.244-1.731 0.731s-0.731 1.064-0.731 1.731v7.385c0 0.667 0.244 1.244 0.731 1.731s1.064 0.731 1.731 0.731h9.846c0.667 0 1.244-0.244 1.731-0.731s0.731-1.064 0.731-1.731v-7.385c0-0.667-0.243-1.244-0.731-1.731s-1.064-0.731-1.731-0.731z"></path>
</symbol>
<symbol id="icon-category" viewBox="0 0 32 32">
<title>category</title>
<path d="M17.143 20.571v-4.571h-4.571v9.143l4.571 0.001v-2.287h9.143v9.143h-9.143v-4.571h-6.857v-18.286h-4.571v-9.143h9.143v9.143h-2.286v4.571h4.571v-2.286h9.143v9.143h-9.143z"></path>
</symbol>
<symbol id="icon-funnel" viewBox="0 0 32 32">
<title>funnel</title>
<path d="M11.315 30.66v-15.696l-10.972-12.707c-0.587-0.719-0.521-2.197 0.996-2.197h29.268c1.425 0 1.755 1.306 0.996 2.197l-10.708 12.371v9.712c0 0.396-0.132 0.732-0.468 0.996l-6.849 6.321c-0.792 0.587-2.263 0.27-2.263-0.996zM4.269 2.725l9.382 10.84c0.198 0.264 0.33 0.534 0.33 0.864v13.235l4.256-3.86v-9.639c0-0.33 0.132-0.6 0.33-0.864l9.112-10.576h-23.409z"></path>
</symbol>
<symbol id="icon-cart-2" viewBox="0 0 41 32">
<title>cart-2</title>
<path stroke-width="0.962" stroke-miterlimit="10" stroke-linecap="square" stroke-linejoin="miter" d="M0.481 0.481h6.974l7.922 20.485"></path>
<path stroke-width="0.962" stroke-miterlimit="10" stroke-linecap="square" stroke-linejoin="miter" d="M34.15 26.935h-21.644l2.886-5.772h20.057l4.983-14.43h-26.483"></path>
<path stroke-width="0.962" stroke-miterlimit="10" stroke-linecap="square" stroke-linejoin="miter" d="M18.138 29.86c0 0.916-0.743 1.659-1.659 1.659s-1.659-0.743-1.659-1.659c0-0.916 0.743-1.659 1.659-1.659s1.659 0.743 1.659 1.659z"></path>
<path stroke-width="0.962" stroke-miterlimit="10" stroke-linecap="square" stroke-linejoin="miter" d="M33.126 29.86c0 0.916-0.743 1.659-1.659 1.659s-1.659-0.743-1.659-1.659c0-0.916 0.743-1.659 1.659-1.659s1.659 0.743 1.659 1.659z"></path>
</symbol>
<symbol id="icon-fb-2" viewBox="0 0 32 32">
<title>fb-2</title>
<path d="M27 0h-22c-2.761 0-5 2.239-5 5v0 22c0 2.761 2.239 5 5 5v0h22c2.761 0 5-2.239 5-5v0-22c0-2.761-2.239-5-5-5v0zM19.43 16h-2.24v8h-3.33v-8h-1.58v-2.82h1.58v-1.83c-0.006-0.072-0.009-0.155-0.009-0.24 0-1.723 1.397-3.12 3.12-3.12 0.088 0 0.175 0.004 0.261 0.011l-0.011-0.001h2.46v2.74h-1.79c-0.011-0.001-0.023-0.001-0.036-0.001-0.376 0-0.68 0.304-0.68 0.68 0 0.032 0.002 0.064 0.007 0.095l-0-0.004v1.66h2.53z"></path>
</symbol>
<symbol id="icon-youtube" viewBox="0 0 32 32">
<title>youtube</title>
<path d="M14.91 21.18c-0.072 0.084-0.154 0.157-0.246 0.217l-0.004 0.003c-0.065 0.045-0.143 0.074-0.229 0.080l-0.001 0c-0.008 0.001-0.017 0.002-0.026 0.002-0.057 0-0.108-0.024-0.144-0.062l-0-0c-0.010-0.031-0.016-0.067-0.016-0.105s0.006-0.074 0.017-0.107l-0.001 0.002v-3.11h-0.81v3.39c-0.001 0.019-0.002 0.041-0.002 0.063 0 0.177 0.053 0.342 0.144 0.48l-0.002-0.003c0.092 0.111 0.231 0.181 0.385 0.181 0.012 0 0.024-0 0.036-0.001l-0.002 0c0.173-0.004 0.335-0.052 0.475-0.133l-0.005 0.003c0.182-0.099 0.338-0.223 0.469-0.368l0.001-0.002v0.45h0.81v-4.060h-0.81z"></path>
<path d="M10.26 17.46h0.94v4.69h0.91v-4.69h0.95v-0.8h-2.8v0.8z"></path>
<path d="M15.86 13.56c0.006 0 0.014 0.001 0.021 0.001 0.103 0 0.197-0.038 0.269-0.101l-0 0c0.068-0.067 0.11-0.16 0.11-0.264 0-0.006-0-0.011-0-0.017l0 0.001v-2.43c0-0.004 0-0.008 0-0.012 0-0.092-0.043-0.174-0.11-0.227l-0.001-0c-0.074-0.056-0.168-0.090-0.271-0.090-0.007 0-0.014 0-0.020 0l0.001-0c-0.005-0-0.011-0-0.017-0-0.096 0-0.185 0.034-0.254 0.091l0.001-0.001c-0.062 0.055-0.1 0.135-0.1 0.224 0 0.006 0 0.011 0 0.017l-0-0.001v2.43c-0 0.006-0 0.012-0 0.019 0 0.101 0.038 0.192 0.101 0.262l-0-0c0.065 0.062 0.153 0.101 0.25 0.101 0.007 0 0.014-0 0.021-0.001l-0.001 0z"></path>
<path d="M17.87 18.050c-0.136 0.003-0.263 0.040-0.374 0.102l0.004-0.002c-0.136 0.075-0.251 0.169-0.349 0.279l-0.001 0.001v-1.77h-0.82v5.49h0.82v-0.31c0.094 0.113 0.211 0.205 0.344 0.267l0.006 0.003c0.118 0.057 0.256 0.090 0.402 0.090 0.006 0 0.013-0 0.019-0h-0.001c0.013 0.001 0.028 0.001 0.044 0.001 0.202 0 0.383-0.089 0.506-0.231l0.001-0.001c0.12-0.163 0.192-0.368 0.192-0.59 0-0.025-0.001-0.049-0.003-0.073l0 0.003v-2.24c0.002-0.027 0.003-0.058 0.003-0.089 0-0.25-0.076-0.483-0.206-0.676l0.003 0.004c-0.129-0.16-0.326-0.261-0.546-0.261-0.016 0-0.031 0-0.047 0.002l0.002-0zM17.87 21.2c0.001 0.012 0.002 0.025 0.002 0.039 0 0.090-0.027 0.173-0.073 0.242l0.001-0.002c-0.048 0.056-0.119 0.091-0.198 0.091-0.008 0-0.016-0-0.023-0.001l0.001 0c-0.030 0.007-0.065 0.011-0.1 0.011s-0.070-0.004-0.103-0.012l0.003 0.001c-0.074-0.037-0.136-0.084-0.19-0.14l-0-0v-2.57c0.048-0.048 0.104-0.088 0.166-0.118l0.004-0.002c0.026-0.006 0.055-0.009 0.085-0.009s0.059 0.003 0.088 0.009l-0.003-0c0.004-0 0.008-0 0.013-0 0.095 0 0.18 0.043 0.237 0.11l0 0c0.051 0.075 0.082 0.168 0.082 0.268 0 0.015-0.001 0.029-0.002 0.044l0-0.002z"></path>
<path d="M27 0h-22c-2.761 0-5 2.239-5 5v0 22c0 2.761 2.239 5 5 5v0h22c2.761 0 5-2.239 5-5v0-22c0-2.761-2.239-5-5-5v0zM17.93 9.76h0.91v3.42c-0.001 0.008-0.001 0.017-0.001 0.027 0 0.076 0.023 0.146 0.062 0.205l-0.001-0.001c0.040 0.044 0.098 0.072 0.163 0.072 0.010 0 0.019-0.001 0.029-0.002l-0.001 0c0.094-0.009 0.18-0.041 0.252-0.091l-0.002 0.001c0.107-0.068 0.199-0.148 0.279-0.239l0.001-0.002v-3.39h0.91v4.46h-0.91v-0.49c-0.146 0.167-0.318 0.307-0.51 0.415l-0.010 0.005c-0.153 0.085-0.335 0.136-0.529 0.14l-0.001 0c-0.013 0.001-0.029 0.002-0.045 0.002-0.174 0-0.33-0.078-0.434-0.201l-0.001-0.001c-0.102-0.147-0.163-0.329-0.163-0.526 0-0.026 0.001-0.052 0.003-0.077l-0 0.003zM14.55 10.76c-0.001-0.013-0.001-0.028-0.001-0.043 0-0.313 0.144-0.593 0.369-0.776l0.002-0.001c0.251-0.195 0.57-0.312 0.916-0.312 0.029 0 0.059 0.001 0.088 0.003l-0.004-0c0.018-0.001 0.039-0.001 0.059-0.001 0.333 0 0.638 0.122 0.872 0.323l-0.002-0.002c0.222 0.197 0.36 0.483 0.36 0.801 0 0.010-0 0.020-0 0.031l0-0.002v2.3c0.001 0.020 0.002 0.044 0.002 0.068 0 0.326-0.135 0.621-0.352 0.832l-0 0c-0.241 0.207-0.558 0.333-0.903 0.333-0.034 0-0.068-0.001-0.101-0.004l0.005 0c-0.031 0.003-0.067 0.004-0.104 0.004-0.345 0-0.66-0.131-0.898-0.345l0.001 0.001c-0.223-0.215-0.361-0.516-0.361-0.85 0-0.018 0-0.035 0.001-0.053l-0 0.002zM12.060 8.18l0.67 2.42h0.060l0.64-2.42h1l-1.19 3.54v2.51h-1v-2.4l-1.24-3.65zM24 20.9c0 1.613-1.307 2.92-2.92 2.92h-10.16c-1.613 0-2.92-1.307-2.92-2.92v-2.35c0-1.613 1.307-2.92 2.92-2.92v0h10.16c1.61 0.006 2.914 1.31 2.92 2.919v0.001z"></path>
<path d="M20.31 18c-0.016-0.001-0.035-0.001-0.054-0.001-0.324 0-0.618 0.126-0.836 0.332l0.001-0.001c-0.21 0.207-0.341 0.495-0.341 0.813 0 0.017 0 0.033 0.001 0.049l-0-0.002v1.81c-0.002 0.023-0.002 0.051-0.002 0.078 0 0.322 0.118 0.617 0.314 0.843l-0.001-0.002c0.202 0.205 0.482 0.332 0.792 0.332 0.024 0 0.048-0.001 0.071-0.002l-0.003 0c0.029 0.002 0.063 0.004 0.097 0.004 0.313 0 0.599-0.119 0.814-0.315l-0.001 0.001c0.195-0.226 0.313-0.522 0.313-0.846 0-0.033-0.001-0.066-0.004-0.098l0 0.004v-0.2h-0.83v0.2c0.003 0.025 0.004 0.055 0.004 0.085 0 0.136-0.031 0.265-0.086 0.381l0.002-0.005c-0.061 0.069-0.149 0.112-0.247 0.112-0.011 0-0.023-0.001-0.034-0.002l0.001 0c-0.009 0.001-0.019 0.001-0.029 0.001-0.098 0-0.186-0.047-0.24-0.121l-0.001-0.001c-0.052-0.111-0.083-0.24-0.083-0.377 0-0.026 0.001-0.051 0.003-0.076l-0 0.003v-0.76h1.55v-1c0.002-0.024 0.003-0.052 0.003-0.080 0-0.308-0.115-0.588-0.304-0.802l0.001 0.001c-0.207-0.222-0.501-0.361-0.828-0.361-0.015 0-0.030 0-0.044 0.001l0.002-0zM20.63 19.59h-0.72v-0.41c-0.002-0.017-0.003-0.036-0.003-0.056 0-0.112 0.031-0.217 0.084-0.307l-0.002 0.003c0.059-0.069 0.146-0.112 0.243-0.112 0.013 0 0.026 0.001 0.038 0.002l-0.002-0c0.010-0.001 0.021-0.002 0.032-0.002 0.096 0 0.181 0.043 0.238 0.111l0 0c0.052 0.087 0.083 0.192 0.083 0.304 0 0.020-0.001 0.039-0.003 0.059l0-0.002z"></path>
</symbol>
<symbol id="icon-vk" viewBox="0 0 32 32">
<title>vk</title>
<path d="M27 0h-22c-2.761 0-5 2.239-5 5v0 22c0 2.761 2.239 5 5 5v0h22c2.761 0 5-2.239 5-5v0-22c0-2.761-2.239-5-5-5v0zM28 23.85c-0.237 0.114-0.515 0.184-0.808 0.19l-0.002 0h-3.47c-0.439-0.017-0.844-0.149-1.19-0.366l0.010 0.006c-0.432-0.264-0.801-0.579-1.115-0.944l-0.005-0.006-1.2-1.33c-0.189-0.217-0.407-0.402-0.648-0.553l-0.012-0.007c-0.111-0.075-0.247-0.12-0.394-0.12-0.255 0-0.479 0.135-0.604 0.337l-0.002 0.003c-0.176 0.262-0.303 0.572-0.358 0.906l-0.002 0.014c-0.060 0.299-0.097 0.644-0.1 0.997l-0 0.003c-0.005 0.141-0.027 0.274-0.063 0.402l0.003-0.012c-0.049 0.183-0.173 0.33-0.336 0.408l-0.004 0.002c-0.17 0.094-0.373 0.15-0.589 0.15-0 0-0.001 0-0.001 0h-1.26c-0.018 0-0.040 0-0.061 0-1.553 0-3.003-0.439-4.234-1.2l0.035 0.020c-1.083-0.656-2-1.465-2.754-2.409l-0.016-0.021c-0.966-1.194-1.876-2.528-2.674-3.934l-0.076-0.146c-0.763-1.294-1.582-2.886-2.318-4.523l-0.132-0.327c-0.054-0.112-0.099-0.242-0.128-0.379l-0.002-0.011c-0.002-0.015-0.003-0.033-0.003-0.051 0-0.176 0.113-0.325 0.27-0.379l0.003-0.001c0.18-0.076 0.39-0.12 0.61-0.12h0.75c0.89 0 1.77 0 2.66 0 0.45 0.004 0.835 0.281 0.997 0.673l0.003 0.007c0.31 0.71 0.62 1.41 1 2.1 0.535 1.058 1.106 1.966 1.752 2.814l-0.032-0.044c0.178 0.248 0.386 0.459 0.622 0.635l0.008 0.005c0.084 0.060 0.179 0.11 0.282 0.147l0.008 0.003c0.048 0.019 0.104 0.029 0.162 0.029 0.169 0 0.317-0.091 0.397-0.227l0.001-0.002c0.125-0.213 0.213-0.463 0.249-0.73l0.001-0.010c0.078-0.497 0.123-1.070 0.123-1.654 0-0.188-0.005-0.376-0.014-0.562l0.001 0.026c-0.006-0.441-0.035-0.868-0.086-1.288l0.006 0.058c-0.038-0.291-0.108-0.554-0.208-0.802l0.008 0.022c-0.159-0.352-0.473-0.61-0.852-0.689l-0.008-0.001-0.32-0.070c-0.1 0-0.14-0.070-0.080-0.16 0.079-0.129 0.168-0.241 0.27-0.34l0-0c0.237-0.214 0.538-0.361 0.871-0.409l0.009-0.001c0.254-0.051 0.565-0.094 0.882-0.118l0.028-0.002c0.41 0 0.81 0 1.21 0h1.24c0.388 0.002 0.764 0.053 1.122 0.147l-0.032-0.007c0.367 0.107 0.642 0.41 0.709 0.784l0.001 0.006c0.026 0.21 0.041 0.453 0.041 0.7s-0.015 0.49-0.044 0.729l0.003-0.029c0 0.19 0 0.38 0 0.56q0 0.53 0 1.060c0 0.54 0 1.090 0 1.63-0.001 0.020-0.001 0.044-0.001 0.067 0 0.275 0.056 0.537 0.156 0.776l-0.005-0.013c0.067 0.134 0.147 0.249 0.241 0.351l-0.001-0.001c0.066 0.077 0.164 0.126 0.274 0.126 0.065 0 0.126-0.017 0.178-0.047l-0.002 0.001c0.265-0.137 0.488-0.318 0.667-0.536l0.003-0.004c0.526-0.62 1.012-1.31 1.434-2.042l0.036-0.068c0.503-0.844 0.987-1.831 1.391-2.859l0.049-0.141c0.038-0.098 0.078-0.18 0.125-0.258l-0.005 0.008c0.127-0.218 0.359-0.361 0.624-0.361 0.016 0 0.032 0.001 0.048 0.002l-0.002-0h2.5c0.47 0 0.95 0 1.42 0 0.059-0.005 0.129-0.008 0.199-0.008 0.221 0 0.435 0.028 0.639 0.082l-0.018-0.004c0.259 0.033 0.457 0.251 0.457 0.516 0 0.030-0.002 0.059-0.007 0.087l0-0.003c-0.014 0.155-0.046 0.297-0.094 0.432l0.004-0.012c-0.173 0.497-0.386 0.926-0.644 1.323l0.014-0.023c-0.575 0.912-1.125 1.685-1.713 2.426l0.043-0.056c-0.42 0.56-0.85 1.11-1.27 1.68-0.117 0.164-0.227 0.351-0.32 0.547l-0.010 0.023c-0.068 0.122-0.107 0.267-0.107 0.421 0 0.222 0.082 0.425 0.218 0.58l-0.001-0.001c0.179 0.222 0.359 0.421 0.549 0.609l0.001 0.001c0.58 0.58 1.18 1.14 1.76 1.72 0.424 0.421 0.803 0.886 1.13 1.387l0.020 0.032c0.129 0.195 0.246 0.419 0.341 0.654l0.009 0.026c0.042 0.087 0.066 0.189 0.066 0.297 0 0.318-0.212 0.586-0.501 0.671l-0.005 0.001z"></path>
</symbol>
<symbol id="icon-google" viewBox="0 0 32 32">
<title>google</title>
<path d="M12.75 8.77c-1.27 0-2.12 1.24-1.9 2.91 0.097 1.487 1.233 2.681 2.685 2.868l0.015 0.002c1.27 0 2-1 1.78-2.71s-1.33-3.030-2.58-3.070z"></path>
<path d="M13.29 18c-1.89 0-3.5 1.2-3.5 2.61s1.37 2.64 3.26 2.64c2.66 0 3.59-1.12 3.59-2.56 0-0 0-0.001 0-0.001 0-0.181-0.022-0.356-0.063-0.524l0.003 0.015c-0.21-0.82-1-1.26-2.070-2-0.359-0.114-0.772-0.18-1.2-0.18-0.007 0-0.014 0-0.021 0h0.001z"></path>
<path d="M27 0h-22c-2.761 0-5 2.239-5 5v0 22c0 2.761 2.239 5 5 5v0h22c2.761 0 5-2.239 5-5v0-22c0-2.761-2.239-5-5-5v0zM17.22 11.77c-0.042 1.045-0.578 1.957-1.379 2.513l-0.011 0.007c-0.8 0.62-0.95 0.88-0.95 1.41s1 1.13 1.39 1.45c1.52 1.15 1.83 1.85 1.83 3.3 0 1.78-1.92 3.55-5 3.55-2.78 0-5.1-1.11-5.1-2.89s1.92-3.7 4.66-3.7h0.86c-0.388-0.283-0.646-0.723-0.68-1.225l-0-0.005c0.009-0.339 0.1-0.655 0.255-0.93l-0.005 0.010h-0.46c-0.052 0.003-0.113 0.005-0.175 0.005-1.872 0-3.39-1.518-3.39-3.39 0-0.061 0.002-0.122 0.005-0.183l-0 0.008c0-1.94 2-3.71 4.39-3.71h4.72l-1.060 1.12h-1.24c0.815 0.545 1.344 1.462 1.344 2.502 0 0.056-0.002 0.111-0.005 0.166l0-0.008zM24 11.48h-2.18v2.18h-1.090v-2.18h-2.17v-1.090h2.17v-2.17h1.090v2.18h2.18z"></path>
</symbol>
<symbol id="icon-list-2" viewBox="0 0 32 32">
<title>list-2</title>
<path d="M30.966 0.603h-29.932c-0.57 0-1.034 0.464-1.034 1.034v4.596c0 0.57 0.464 1.034 1.034 1.034h29.932c0.57 0 1.034-0.464 1.034-1.034v-4.596c0-0.57-0.464-1.034-1.034-1.034z"></path>
<path d="M30.966 12.668h-29.932c-0.57 0-1.034 0.464-1.034 1.034v4.596c0 0.57 0.464 1.034 1.034 1.034h29.932c0.57 0 1.034-0.464 1.034-1.034v-4.596c0-0.57-0.464-1.034-1.034-1.034z"></path>
<path d="M30.966 24.733h-29.932c-0.57 0-1.034 0.464-1.034 1.034v4.596c0 0.57 0.464 1.034 1.034 1.034h29.932c0.57 0 1.034-0.464 1.034-1.034v-4.596c0-0.57-0.464-1.034-1.034-1.034z"></path>
</symbol>
<symbol id="icon-list-1" viewBox="0 0 32 32">
<title>list-1</title>
<path d="M0 24.276h7.724v7.724h-7.724v-7.724z"></path>
<path d="M0 12.138h7.724v7.724h-7.724v-7.724z"></path>
<path d="M0 0h7.724v7.724h-7.724v-7.724z"></path>
<path d="M12.138 24.276h7.724v7.724h-7.724v-7.724z"></path>
<path d="M12.138 12.138h7.724v7.724h-7.724v-7.724z"></path>
<path d="M12.138 0h7.724v7.724h-7.724v-7.724z"></path>
<path d="M24.276 24.276h7.724v7.724h-7.724v-7.724z"></path>
<path d="M24.276 12.138h7.724v7.724h-7.724v-7.724z"></path>
<path d="M24.276 0h7.724v7.724h-7.724v-7.724z"></path>
</symbol>
<symbol id="icon-skype" viewBox="0 0 32 32">
<title>skype</title>
<path d="M30.941 18.671c0.159-0.826 0.25-1.777 0.251-2.749v-0.001c0-0.003 0-0.007 0-0.010 0-8.358-6.775-15.133-15.133-15.133-0.005 0-0.009 0-0.014 0h0.001c-1.015 0.001-2.007 0.101-2.966 0.291l0.097-0.016h-0.007c-1.218-0.66-2.667-1.048-4.206-1.048-4.949 0-8.962 4.012-8.962 8.962 0 1.596 0.417 3.095 1.148 4.392l-0.023-0.045c-0.145 0.784-0.228 1.687-0.229 2.609v0.001c0 0.002 0 0.005 0 0.008 0 8.361 6.778 15.139 15.139 15.139 0.939 0 1.859-0.086 2.751-0.249l-0.093 0.014c1.271 0.733 2.794 1.165 4.419 1.165 4.95 0 8.963-4.013 8.963-8.963 0-1.604-0.421-3.11-1.16-4.413l0.023 0.044zM16.106 25.202c-5.381 0-7.79-2.645-7.79-4.628 0-1.017 0.751-1.729 1.786-1.729 2.302 0 1.706 3.306 6.003 3.306 2.199 0 3.414-1.191 3.414-2.417 0-0.733-0.367-1.55-1.811-1.906l-4.786-1.191c-3.855-0.967-4.555-3.050-4.555-5.009 0-4.067 3.829-5.59 7.423-5.59 3.312 0 7.217 1.833 7.217 4.271 0 1.046-0.905 1.65-1.939 1.65-1.966 0-1.604-2.72-5.562-2.72-1.965 0-3.054 0.89-3.054 2.163s1.552 1.676 2.899 1.983l3.543 0.786c3.884 0.86 4.868 3.125 4.868 5.258 0 3.306-2.537 5.774-7.657 5.774z"></path>
</symbol>
<symbol id="icon-search" viewBox="0 0 28 32">
<title>search</title>
<path stroke-width="1.5511" stroke-miterlimit="10" stroke-linecap="butt" stroke-linejoin="miter" d="M22.653 5.634c4.036 5.368 2.957 12.992-2.411 17.028s-12.992 2.957-17.028-2.411c-4.036-5.368-2.957-12.992 2.411-17.028s12.992-2.957 17.028 2.411z"></path>
<path stroke-width="3.8623" stroke-miterlimit="10" stroke-linecap="butt" stroke-linejoin="miter" d="M21.189 24.058l5.103 6.778"></path>
</symbol>
<symbol id="icon-mail" viewBox="0 0 51 32">
<title>mail</title>
<path d="M0.396 2.493c-0.241 0.504-0.386 1.093-0.395 1.716l-0 0.003v23.523c0.012 0.541 0.118 1.053 0.303 1.526l-0.010-0.030 13.464-13.395z"></path>
<path d="M46.943 32c0.628-0.015 1.217-0.166 1.744-0.424l-0.025 0.011-13.515-13.515-9.612 9.629-9.543-9.612-13.515 13.498c0.502 0.25 1.092 0.401 1.715 0.413l0.004 0z"></path>
<path d="M25.603 23.179l22.887-22.887c-0.459-0.182-0.99-0.289-1.546-0.292h-42.68c-0.557 0.003-1.089 0.11-1.577 0.303l0.030-0.010 15.544 15.527z"></path>
<path d="M50.915 29.232c0.178-0.448 0.284-0.967 0.292-1.51l0-0.003v-23.454c-0.013-0.626-0.157-1.216-0.407-1.746l0.011 0.026-13.326 13.292z"></path>
</symbol>
<symbol id="icon-viber" viewBox="0 0 28 32">
<title>viber</title>
<path d="M25.016 2.772c-0.733-0.681-3.895-2.718-10.492-2.744 0 0-7.811-0.525-11.602 2.989-2.112 2.134-2.822 5.306-2.9 9.179s-0.311 11.249 6.613 13.216l0.041 0.011 0.005 6.577 5.151-5.707c4.751 0.318 8.531-0.644 8.938-0.777 0.955-0.314 6.137-0.772 7.017-8.026 0.902-7.48-0.34-12.585-2.771-14.719zM13.76 4.625c2.367 0.018 4.375 0.833 5.97 2.424 0.786 0.787 1.405 1.739 1.802 2.801l0.018 0.054c0.399 1.077 0.607 2.313 0.618 3.673 0 0.001 0 0.003 0 0.005 0 0.29-0.235 0.525-0.525 0.525-0.289 0-0.523-0.233-0.525-0.521v-0c-0.011-1.236-0.192-2.354-0.554-3.312-0.359-0.966-0.896-1.791-1.575-2.473l0 0c-0.655-0.661-1.438-1.193-2.308-1.558l-0.047-0.017c-0.847-0.344-1.829-0.544-2.857-0.544-0.009 0-0.018 0-0.028 0h0.001c-0.144-0.002-0.273-0.062-0.366-0.157l-0-0c-0.092-0.095-0.149-0.225-0.149-0.369 0-0.291 0.235-0.528 0.525-0.531h0zM17.845 9.33c-0.397-0.441-0.879-0.795-1.423-1.039l-0.027-0.011c-0.579-0.254-1.25-0.421-1.955-0.465l-0.017-0.001c-0.27-0.027-0.48-0.254-0.48-0.529 0-0.16 0.070-0.303 0.182-0.401l0.001-0.001c0.090-0.079 0.208-0.127 0.338-0.127 0.015 0 0.030 0.001 0.044 0.002l-0.002-0c1.744 0.131 3.129 0.758 4.114 1.862s1.474 2.496 1.439 4.13c-0.006 0.285-0.239 0.514-0.525 0.514-0.29 0-0.526-0.235-0.526-0.525 0-0.004 0-0.008 0-0.012v0.001c0.030-1.357-0.363-2.499-1.164-3.398zM18.004 12.006c0 0.008 0.001 0.017 0.001 0.026 0 0.281-0.219 0.511-0.495 0.53l-0.002 0h-0.025c-0 0-0 0-0 0-0.283 0-0.513-0.223-0.526-0.503l-0-0.001c-0.033-0.67-0.206-1.178-0.515-1.503s-0.77-0.498-1.389-0.533c-0.274-0.022-0.489-0.251-0.489-0.529 0-0.293 0.238-0.531 0.531-0.531 0.004 0 0.009 0 0.013 0h-0.001c0.895 0.050 1.599 0.339 2.093 0.861s0.755 1.25 0.8 2.182zM22.103 20.301v0.013c-0.388 0.682-0.855 1.266-1.4 1.767l-0.005 0.005-0.013 0.010c-0.769 0.657-1.519 0.864-2.242 0.624-2.784-1.123-5.608-2.747-8.218-5.455-2.645-2.743-4.415-5.824-5.334-8.713l-0.091-0.422c-0.181-1.049 0.476-1.752 2.284-2.975l0.032-0.024c0.63-0.387 1.253-0.196 1.656 0.139 0.373 0.264 1.421 1.653 1.421 1.653 0.207 0.314 1.648 2.093 1.316 2.947-0.113 0.491-0.958 1.007-1.414 1.431l-0.036 0.030c-0.193 0.322-0.272 0.543-0.208 1.015l0.017 0.076q0.356 1.727 1.999 3.32c1.087 1.051 2.146 1.675 3.143 1.925 0.139 0.029 0.673 0.102 1.019-0.338l0.675-0.869c0.324-0.431 1.111-0.707 1.882-0.272 0.659 0.386 1.207 0.748 1.735 1.136l-0.056-0.039c0.511 0.385 1.556 1.276 1.56 1.28 0.498 0.436 0.613 1.068 0.276 1.736z"></path>
</symbol>
<symbol id="icon-fb" viewBox="0 0 32 32">
<title>fb</title>
<path d="M26.006 0h-20c-0.004 0-0.008 0-0.012 0-3.31 0-5.994 2.684-5.994 5.994 0 0 0 0 0 0v0 20c0 0.004 0 0.008 0 0.012 0 3.31 2.684 5.994 5.994 5.994 0.004 0 0.009 0 0.013 0h19.999c0 0 0 0 0 0 3.31 0 5.994-2.684 5.994-5.994 0-0.004 0-0.009 0-0.013v0.001-20c0-3.31-2.684-5.994-5.994-5.994v0zM25.194 17.231h-3.040v11.077h-4.923v-11.077h-1.982v-3.692h1.982v-2.462c0-3.077 1.231-4.923 4.923-4.923h3.692v3.692h-2.129c-1.428 0-1.563 0.554-1.563 1.551v2.142h3.446z"></path>
</symbol>
<symbol id="icon-cart" viewBox="0 0 42 32">
<title>cart</title>
<path d="M34.749 25.567c1.776 0 3.216 1.44 3.216 3.216s-1.44 3.216-3.216 3.216-3.216-1.44-3.216-3.216c0-0.888 0.36-1.693 0.942-2.275v0c0.582-0.582 1.386-0.942 2.274-0.942 0 0 0 0 0.001 0h-0zM36.091 27.442c-0.343-0.344-0.818-0.556-1.342-0.556-1.048 0-1.897 0.849-1.897 1.897s0.849 1.897 1.897 1.897c1.047 0 1.896-0.849 1.897-1.896v-0c0-0 0-0.001 0-0.001 0-0.524-0.212-0.998-0.555-1.341v0z"></path>
<path d="M15.808 24.752c-0.112 0.215-0.333 0.359-0.587 0.359-0.364 0-0.66-0.295-0.66-0.66 0-0.142 0.045-0.273 0.121-0.381l-0.001 0.002 0.967-1.593c0.118-0.191 0.325-0.316 0.562-0.316h0v-0.006h20.029c0.364 0 0.66 0.295 0.66 0.66s-0.295 0.66-0.66 0.66v0h-19.662z"></path>
<path d="M14.614 13.251c-0.364 0-0.66-0.295-0.66-0.66s0.295-0.66 0.66-0.66v0h25.128l0.538-2.868c0.078-0.283 0.334-0.488 0.637-0.488 0.364 0 0.66 0.295 0.66 0.66 0 0.024-0.001 0.048-0.004 0.072l0-0.003-0.628 3.354c-0.035 0.335-0.315 0.594-0.657 0.594-0.001 0-0.002 0-0.004 0h-25.671z"></path>
<path d="M40.928 8.522c0.364 0 0.66 0.295 0.66 0.66s-0.295 0.66-0.66 0.66v0h-27.804c-0.364 0-0.66-0.295-0.66-0.66s0.295-0.66 0.66-0.66v0z"></path>
<path d="M13.656 20.068c-0.364 0-0.66-0.295-0.66-0.66s0.295-0.66 0.66-0.66v0h24.81l0.538-2.868c0.074-0.289 0.333-0.5 0.64-0.5 0.364 0 0.66 0.295 0.66 0.66 0 0.029-0.002 0.057-0.005 0.085l0-0.003-0.628 3.354c-0.035 0.335-0.315 0.594-0.657 0.594-0.001 0-0.002 0-0.004 0h-25.354z"></path>
<path d="M5.585 0c0.364 0 0.66 0.295 0.66 0.66s-0.295 0.66-0.66 0.66v0h-4.925c-0.364 0-0.66-0.295-0.66-0.66s0.295-0.66 0.66-0.66v0z"></path>
<path d="M14.262 19.149c0.027 0.069 0.042 0.149 0.042 0.232 0 0.364-0.295 0.66-0.66 0.66-0.259 0-0.484-0.15-0.591-0.367l-0.002-0.004-8.073-18.75c-0.025-0.067-0.040-0.145-0.040-0.226 0-0.364 0.295-0.66 0.66-0.66 0.257 0 0.48 0.147 0.589 0.362l0.002 0.004z"></path>
<path d="M39.651 15.34c0.018-0.002 0.040-0.003 0.062-0.003 0.364 0 0.66 0.295 0.66 0.66s-0.295 0.66-0.66 0.66c-0.022 0-0.043-0.001-0.064-0.003l0.003 0h-23.544c-0.268-0.001-0.498-0.161-0.6-0.39l-0.002-0.004-1.493-3.408c-0.024-0.065-0.037-0.14-0.037-0.218 0-0.364 0.295-0.66 0.66-0.66 0.252 0 0.471 0.141 0.582 0.349l0.002 0.004 1.32 3.014z"></path>
<path d="M2.755 3.806c0.048 0.089 0.076 0.195 0.076 0.307 0 0.364-0.295 0.66-0.66 0.66-0.286 0-0.53-0.182-0.621-0.437l-0.001-0.005-1.492-3.409c-0.047-0.088-0.074-0.193-0.074-0.304 0-0.364 0.295-0.66 0.66-0.66 0.285 0 0.528 0.181 0.62 0.435l0.001 0.005z"></path>
<path d="M13.728 8.92c0.024 0.065 0.037 0.14 0.037 0.218 0 0.364-0.295 0.66-0.66 0.66-0.252 0-0.471-0.141-0.582-0.349l-0.002-0.004-1.492-3.409c-0.034-0.077-0.054-0.167-0.054-0.262 0-0.364 0.294-0.659 0.658-0.66h29.934c0.364 0 0.66 0.295 0.66 0.66s-0.295 0.66-0.66 0.66v0h-28.928z"></path>
<path d="M3.761 3.409c0.364 0 0.66 0.295 0.66 0.66s-0.295 0.66-0.66 0.66v0h-1.61c-0.364 0-0.66-0.295-0.66-0.66s0.295-0.66 0.66-0.66v0z"></path>
<path d="M12.591 25.567c1.776 0 3.216 1.44 3.216 3.216s-1.44 3.216-3.216 3.216-3.216-1.44-3.216-3.216c0-0.888 0.36-1.693 0.942-2.275v0c0.582-0.582 1.386-0.942 2.274-0.942 0 0 0 0 0.001 0h-0zM13.933 27.442c-0.343-0.344-0.818-0.556-1.342-0.556-1.048 0-1.897 0.849-1.897 1.897s0.849 1.897 1.897 1.897c1.047 0 1.896-0.849 1.897-1.896v-0c0-0 0-0 0-0 0-0.524-0.212-0.998-0.556-1.342v0z"></path>
</symbol>
<symbol id="icon-right-arrow" viewBox="0 0 32 32">
<title>right-arrow</title>
<path d="M10.022 30.090c-0.198 0.198-0.447 0.298-0.719 0.298s-0.521-0.099-0.719-0.298c-0.397-0.397-0.397-1.042 0-1.439l12.651-12.651-12.651-12.651c-0.397-0.397-0.397-1.042 0-1.439s1.042-0.397 1.439 0l13.371 13.371c0.397 0.397 0.397 1.042 0 1.439l-13.371 13.371z"></path>
</symbol>
<symbol id="icon-left-arrow" viewBox="0 0 32 32">
<title>left-arrow</title>
<path d="M21.978 30.090c0.198 0.198 0.447 0.298 0.719 0.298s0.521-0.099 0.719-0.298c0.397-0.397 0.397-1.042 0-1.439l-12.651-12.651 12.651-12.651c0.397-0.397 0.397-1.042 0-1.439s-1.042-0.397-1.439 0l-13.395 13.371c-0.397 0.397-0.397 1.042 0 1.439l13.395 13.371z"></path>
</symbol>
<symbol id="icon-down-arrow" viewBox="0 0 32 32">
<title>down-arrow</title>
<path d="M30.090 8.583c-0.397-0.397-1.042-0.397-1.439 0l-12.651 12.676-12.676-12.676c-0.397-0.397-1.042-0.397-1.439 0s-0.397 1.042 0 1.439l13.371 13.371c0.198 0.198 0.447 0.298 0.719 0.298 0.248 0 0.521-0.099 0.719-0.298l13.371-13.371c0.422-0.397 0.422-1.042 0.025-1.439z"></path>
</symbol>
<symbol id="icon-111" viewBox="0 0 32 32">
<title>111</title>
<path d="M31.999 16.315c0-0.006 0-0.012 0-0.018-0.007-0.399-0.333-0.72-0.733-0.72-0.001 0-0.003 0-0.004 0h-0.193l-2.987-5.776c-0.125-0.237-0.37-0.396-0.652-0.396-0.001 0-0.003 0-0.004 0h-5.1l0.195-1.542c0.008-0.068 0.012-0.146 0.012-0.225 0-1.157-0.938-2.096-2.096-2.096-0.010 0-0.021 0-0.031 0l0.002-0h-15.829c-0.403 0.002-0.734 0.309-0.774 0.702l-0 0.003-0.159 1.271h9.019c0.002 0 0.003 0 0.005 0 0.568 0 1.028 0.46 1.028 1.028 0 0.011-0 0.023-0.001 0.034l0-0.002c-0.019 0.588-0.498 1.057-1.088 1.060h-3.008v0.005h-8.832c-0.417 0.002-0.756 0.334-0.769 0.748l-0 0.001c-0 0.007-0 0.015-0 0.024 0 0.401 0.325 0.726 0.726 0.726 0.001 0 0.003 0 0.004 0h11.695c0.532 0.083 0.934 0.538 0.934 1.087 0 0.012-0 0.025-0.001 0.037l0-0.002c-0.020 0.626-0.528 1.128-1.156 1.136h-8.064c-0.421 0.002-0.764 0.338-0.777 0.756l-0 0.001c-0 0.007-0 0.015-0 0.024 0 0.405 0.329 0.734 0.734 0.734 0.001 0 0.003 0 0.004 0h7.967c0.54 0.076 0.95 0.535 0.95 1.090 0 0.012-0 0.024-0.001 0.036l0-0.002c-0.020 0.63-0.534 1.133-1.165 1.136h-9.91c-0.421 0.002-0.764 0.338-0.777 0.756l-0 0.001c-0 0.007-0 0.015-0 0.023 0 0.405 0.329 0.734 0.734 0.734 0.001 0 0.003 0 0.004 0h0.662l-0.259 2.713c-0.008 0.068-0.012 0.146-0.012 0.225 0 1.157 0.938 2.096 2.096 2.096 0.010 0 0.021-0 0.031-0l-0.002 0h0.571c0.281 1.564 1.631 2.736 3.255 2.736 0.005 0 0.010 0 0.015-0h-0.001c1.657-0.012 3.042-1.165 3.408-2.712l0.005-0.024h7.136c0.595-0.005 1.137-0.225 1.555-0.584l-0.003 0.003c0.378 0.36 0.89 0.582 1.454 0.582 0.008 0 0.016-0 0.025-0h0.116c0.281 1.564 1.631 2.736 3.255 2.736 0.005 0 0.010 0 0.015-0h-0.001c1.657-0.012 3.042-1.165 3.408-2.712l0.005-0.024h0.471c1.227 0 2.315-0.997 2.424-2.224l0.461-5.113c0-0.007 0-0.014 0-0.020s0-0.020 0-0.031 0.005-0.013 0.005-0.020zM8.301 24.944c-0.002 0-0.005 0-0.008 0-1.014 0-1.837-0.822-1.837-1.837 0-0.020 0-0.040 0.001-0.060l-0 0.003c0.035-1.048 0.89-1.886 1.942-1.893h0.001c0.002 0 0.005-0 0.008-0 1.014 0 1.837 0.822 1.837 1.837 0 0.020-0 0.040-0.001 0.060l0-0.003c-0.035 1.048-0.889 1.886-1.941 1.893h-0.001zM25.266 24.944c-0.003 0-0.005 0-0.008 0-1.014 0-1.837-0.822-1.837-1.837 0-0.020 0-0.040 0.001-0.060l-0 0.003c0.035-1.048 0.89-1.886 1.942-1.893h0.001c0.003 0 0.005-0 0.008-0 1.014 0 1.837 0.822 1.837 1.837 0 0.020-0 0.040-0.001 0.060l0-0.003c-0.035 1.048-0.89 1.886-1.942 1.893h-0.001zM30.026 21.402c-0.052 0.447-0.422 0.792-0.876 0.806l-0.001 0h-0.51c-0.348-1.481-1.658-2.566-3.221-2.566-0.005 0-0.010 0-0.015 0h0.001c-1.596 0.012-2.939 1.081-3.363 2.541l-0.006 0.025h-0.156c-0.004 0-0.010 0-0.015 0-0.185 0-0.351-0.078-0.469-0.203l-0-0c-0.102-0.114-0.164-0.266-0.164-0.432 0-0.026 0.002-0.051 0.004-0.077l-0 0.003 0.956-10.58h2.196l-0.351 3.849c-0.008 0.068-0.012 0.146-0.012 0.225 0 1.157 0.938 2.096 2.096 2.096 0.010 0 0.021-0 0.031-0l-0.002 0h4.267z"></path>
</symbol>
<symbol id="icon-1" viewBox="0 0 28 32">
<title>1</title>
<path fill="#b19354" style="fill: var(--color1, #b19354)" d="M13.494 26.96h-10.384c-0.001 0-0.002 0-0.003 0-0.752 0-1.362-0.608-1.366-1.359v-22.499c0.003-0.752 0.613-1.361 1.366-1.361 0.001 0 0.002 0 0.003 0h19.198c0.001 0 0.002 0 0.003 0 0.752 0 1.362 0.608 1.366 1.359v11.393c-0.008 0.335-0.282 0.604-0.618 0.604s-0.61-0.269-0.618-0.603v-11.394c-0.003-0.069-0.060-0.123-0.129-0.123-0.001 0-0.003 0-0.004 0h-19.198c-0.001-0-0.003-0-0.004-0-0.069 0-0.126 0.055-0.129 0.123v22.499c0.003 0.069 0.060 0.123 0.129 0.123 0.001 0 0.003-0 0.004-0h10.384c0.004-0 0.009-0 0.014-0 0.341 0 0.618 0.277 0.618 0.618s-0.277 0.618-0.618 0.618c-0.005 0-0.010-0-0.015-0h0.001z"></path>
<path fill="#b19354" style="fill: var(--color1, #b19354)" d="M6.087 5.028h13.2v1.118h-13.2v-1.118z"></path>
<path fill="#b19354" style="fill: var(--color1, #b19354)" d="M6.087 7.139h13.2v1.118h-13.2v-1.118z"></path>
<path fill="#b19354" style="fill: var(--color1, #b19354)" d="M6.087 9.249h13.2v1.118h-13.2v-1.118z"></path>
<path fill="#b19354" style="fill: var(--color1, #b19354)" d="M20.749 14.118c0.079 0.241 0.179 0.477 0.23 0.723 0.049 0.232 0.056 0.475 0.064 0.715 0.019 0.486 0.181 0.918 0.465 1.309 0.101 0.138 0.19 0.285 0.284 0.427 0.419 0.632 0.388 1.266-0.044 1.867-0.443 0.615-0.66 1.279-0.636 2.038 0.028 0.861-0.399 1.431-1.214 1.693-0.679 0.218-1.206 0.616-1.607 1.206-0.493 0.727-1.173 0.967-2.012 0.689-0.668-0.22-1.316-0.188-1.987 0.022-0.977 0.307-1.462 0.141-2.084-0.66-0.39-0.502-0.855-0.88-1.474-1.055-0.167-0.054-0.302-0.107-0.433-0.167l0.026 0.011q-0.891-0.365-0.982-1.324c-0.008-0.052-0.014-0.114-0.016-0.176l-0-0.002c0.024-0.777-0.236-1.453-0.703-2.068-0.496-0.653-0.492-1.336-0.015-1.994 0.432-0.6 0.642-1.251 0.619-1.991-0.027-0.87 0.393-1.45 1.22-1.718 0.669-0.216 1.193-0.601 1.588-1.186 0.502-0.746 1.197-0.992 2.055-0.703 0.66 0.222 1.307 0.2 1.96-0.032 0.809-0.29 1.506-0.129 2.019 0.588 0.443 0.619 1.029 1.006 1.755 1.216 0.369 0.103 0.683 0.304 0.921 0.573l0.002 0.002zM19.401 15.112c-1.756-2.348-5.049-2.817-7.409-1.052-2.311 1.729-2.796 5.040-1.077 7.349 1.763 2.368 5.076 2.856 7.427 1.094 2.333-1.748 2.806-5.052 1.058-7.391z"></path>
<path fill="#b19354" style="fill: var(--color1, #b19354)" d="M26.012 23.88c-0.61 0.315-1.174 0.612-1.746 0.896-0.142 0.070-0.196 0.156-0.219 0.307-0.086 0.558-0.188 1.113-0.287 1.686-1.325-0.885-2.684-1.793-4.088-2.732 0.974-0.791 1.859-1.631 2.168-2.945 1.409 0.942 2.767 1.849 4.172 2.788z"></path>
<path fill="#b19354" style="fill: var(--color1, #b19354)" d="M15.988 25.472c1.329 0.064 2.385-0.521 3.435-1.254 0.502 1.609 0.988 3.166 1.473 4.719-0.56-0.072-1.102-0.131-1.642-0.213-0.196-0.030-0.328 0-0.467 0.156-0.416 0.462-0.854 0.905-1.307 1.38-0.498-1.596-0.985-3.159-1.493-4.788z"></path>
<path fill="#b19354" style="fill: var(--color1, #b19354)" d="M18.265 19.1c0.010 0.037 0.016 0.079 0.016 0.123 0 0.221-0.15 0.408-0.354 0.464l-0.003 0.001-1.622 0.429c-0.037 0.010-0.079 0.016-0.123 0.016-0.265 0-0.48-0.215-0.48-0.48 0-0.222 0.15-0.408 0.354-0.464l0.003-0.001 1.622-0.428c0.037-0.010 0.079-0.016 0.123-0.016 0.221 0 0.407 0.149 0.463 0.352l0.001 0.003zM17.906 17.744c0.010 0.037 0.016 0.079 0.016 0.123 0 0.221-0.15 0.408-0.354 0.464l-0.003 0.001-1.622 0.429c-0.041 0.012-0.087 0.020-0.136 0.020-0.265 0-0.48-0.215-0.48-0.48 0-0.226 0.157-0.416 0.367-0.467l0.003-0.001 1.621-0.429c0.037-0.010 0.079-0.016 0.122-0.016 0.222 0 0.408 0.15 0.464 0.354l0.001 0.003zM15.338 16.476l1.622-0.43c0.037-0.010 0.079-0.016 0.123-0.016 0.265 0 0.481 0.215 0.481 0.481 0 0.222-0.15 0.408-0.354 0.464l-0.003 0.001-1.621 0.429c-0.035 0.009-0.075 0.014-0.116 0.014-0.265 0-0.48-0.215-0.48-0.48 0-0.219 0.146-0.403 0.346-0.461l0.003-0.001zM14.546 22.033c-0.878 0.201-2.385-0.552-2.726-1.834s0.245-2.116 0.245-2.116l1.114-1.888s0.161-0.46 0.161-0.85 0.029-0.522 0.029-0.522 0.009-0.571 0.504-0.637 0.76 0.171 0.846 0.427c0.002 0.007 0.005 0.013 0.006 0.020 0.341 1.112-0.058 1.971-0.058 1.971-0.072 0.115-0.115 0.254-0.115 0.404 0 0.067 0.009 0.133 0.025 0.195l-0.001-0.005c0.109 0.413 0.544 0.566 0.544 0.566s-0.324 0.322-0.203 0.779 0.611 0.58 0.611 0.58-0.358 0.379-0.252 0.776 0.548 0.58 0.548 0.58-0.282 0.422-0.193 0.761 0.339 0.447 0.339 0.447-0.544 0.145-1.422 0.346zM18.283 21.043l-1.622 0.429c-0.037 0.010-0.079 0.016-0.123 0.016-0.265 0-0.48-0.215-0.48-0.48 0-0.222 0.15-0.408 0.354-0.464l0.003-0.001 1.622-0.43c0.037-0.010 0.079-0.016 0.123-0.016 0.265 0 0.48 0.215 0.48 0.48 0 0.222-0.15 0.408-0.354 0.464l-0.003 0.001z"></path>
</symbol>
<symbol id="icon-3" viewBox="0 0 37 32">
<title>3</title>
<path d="M36.616 7.068q-3.801-3.286-7.61-6.562c-0.209-0.18-0.438-0.337-0.658-0.505h-0.348c-0.184 0.167-0.394 0.314-0.55 0.504-0.873 1.070-1.733 2.151-2.598 3.227-0.097 0.127-0.198 0.239-0.307 0.343l-0.001 0.001c-0.29 0.26-0.603 0.307-0.93 0.101-1.517-0.957-3.203-1.239-4.955-1.275-2.399-0.048-4.754 0.299-7.095 0.785-0.606 0.126-1.079 0-1.535-0.417-0.704-0.646-1.448-1.249-2.175-1.869-0.089-0.075-0.188-0.149-0.29-0.217l-0.012-0.007c-0.454-0.301-0.845-0.297-1.234 0.085-0.352 0.334-0.669 0.699-0.948 1.092l-0.015 0.023c-1.983 2.943-3.723 6.023-5.164 9.268-0.061 0.138-0.126 0.275-0.19 0.413v0.406c0.158 0.136 0.301 0.297 0.478 0.402 0.489 0.29 1 0.543 1.489 0.833 0.838 0.497 1.648 1.043 2.6 1.318 0.141 0.041 0.293 0.228 0.341 0.379 0.136 0.431 0.208 0.882 0.328 1.319 0.097 0.353 0.014 0.638-0.221 0.907-0.406 0.468-0.806 0.939-1.178 1.432-0.336 0.447-0.57 0.952-0.508 1.532 0.075 0.691 0.464 1.159 1.118 1.379 0.69 0.232 1.326 0.107 1.835-0.431 1.101-1.166 2.19-2.343 3.281-3.519 0.412-0.444 0.577-0.96 0.362-1.548-0.228-0.625-0.664-1.036-1.329-1.162-0.574-0.109-1.089 0.058-1.559 0.384-0.194 0.136-0.383 0.276-0.601 0.434-0.1-0.454-0.203-0.866-0.282-1.282-0.26-1.371-0.348-0.928 0.34-2.169 1.194-2.163 2.402-4.318 3.581-6.489 0.381-0.703 0.913-1.115 1.714-1.21 0.661-0.078 1.317-0.199 1.974-0.308 2.377-0.394 4.757-0.552 7.152-0.19 0.101 0.020 0.185 0.042 0.266 0.067l-0.018-0.005c-0.036 0.057-0.095 0.097-0.163 0.107l-0.001 0c-0.89 0.116-1.78 0.239-2.671 0.341-0.769 0.086-1.515 0.253-2.136 0.734-0.762 0.591-1.507 1.209-2.224 1.855-0.673 0.605-0.608 1.28 0.129 1.817 1.070 0.78 2.21 0.943 3.445 0.419 0.397-0.169 0.808-0.339 1.229-0.413 1.179-0.208 2.368-0.354 3.548-0.548 0.447-0.074 0.804 0.030 1.144 0.328q4.334 3.805 8.679 7.594c0.135 0.115 0.257 0.233 0.372 0.359l0.003 0.003c0.459 0.526 0.492 1.093 0.098 1.67-0.344 0.504-0.835 0.838-1.381 1.061-0.198 0.081-0.484 0-0.714-0.068-0.147-0.042-0.269-0.182-0.393-0.29-1.074-0.928-2.145-1.863-3.221-2.788-0.188-0.163-0.399-0.309-0.625-0.43l-0.018-0.009c-0.286-0.15-0.732-0.034-0.9 0.195-0.154 0.209-0.126 0.461 0.125 0.761 0.188 0.226 0.388 0.428 0.603 0.613l0.007 0.006q1.675 1.431 3.362 2.844c0.303 0.254 0.415 0.558 0.366 0.948-0.079 0.626-0.359 1.155-0.74 1.641-0.638 0.812-0.895 0.845-1.703 0.199q-2.029-1.619-4.048-3.243c-0.047-0.042-0.099-0.083-0.153-0.122l-0.006-0.004c-0.274-0.174-0.565-0.132-0.83-0.007-0.238 0.112-0.217 0.367-0.211 0.59 0.010 0.329 0.249 0.512 0.475 0.692q1.963 1.558 3.933 3.107c0.911 0.721 0.761 2.394-0.269 2.948-0.126 0.067-0.271 0.12-0.425 0.149l-0.010 0.002c-0.522 0.101-0.962-0.088-1.361-0.418-1.229-1.015-2.453-2.036-3.703-3.025-0.317-0.251-0.711-0.417-1.090-0.573-0.293-0.12-0.528 0.038-0.619 0.344-0.125 0.42 0.086 0.701 0.392 0.946q2.148 1.722 4.293 3.447c0.383 0.308 0.424 0.47 0.232 0.923-0.275 0.652-0.812 1.002-1.432 1.275-0.482 0.212-0.906 0.162-1.333-0.147-1.069-0.779-2.153-1.538-3.223-2.319-0.441-0.321-0.861-0.672-1.308-1.023 0.264-0.29 0.507-0.552 0.74-0.821 0.215-0.248 0.441-0.49 0.625-0.759 0.481-0.702 0.297-1.719-0.392-2.261-0.649-0.513-1.663-0.454-2.213 0.174q-1.643 1.873-3.238 3.789c-0.171 0.216-0.279 0.49-0.29 0.788l-0 0.002c-0.013 0.95 0.95 1.762 1.89 1.651 0.463-0.056 0.866-0.276 1.158-0.598l0.001-0.002c0.283-0.299 0.562-0.601 0.85-0.91 0.119 0.083 0.214 0.147 0.307 0.215 1.055 0.783 2.103 1.576 3.166 2.346 0.73 0.529 1.417 1.138 2.329 1.357h0.754c0.461-0.19 0.952-0.327 1.375-0.58 0.733-0.436 1.276-1.127 1.511-1.948l0.006-0.023c0.072-0.249 0.187-0.43 0.475-0.473 1.581-0.237 2.499-1.189 2.715-2.802 0.019-0.096 0.034-0.214 0.043-0.334l0.001-0.011c0.009-0.366 0.184-0.583 0.515-0.758 1.192-0.628 1.809-1.691 2.032-2.972 0.103-0.588 0.303-0.902 0.913-1.101 1.432-0.464 2.351-1.929 2.265-3.391-0.038-0.643-0.323-1.137-0.843-1.507-0.274-0.196-0.535-0.409-0.823-0.631 0.473-0.578 0.843-1.261 1.071-2.007l0.011-0.042c0.147-0.508 0.267-1.027 0.362-1.547 0.076-0.439 0.274-0.822 0.558-1.123l-0.001 0.001c0.684-0.735 1.37-1.468 2.050-2.208 0.174-0.19 0.326-0.399 0.489-0.599v-0.348c-0.157-0.177-0.301-0.375-0.481-0.53zM7.206 16.716s0.952-0.895 1.616-0.202-0.635 1.731-0.635 1.731-2.639 3.417-3.26 3.001c0 0-0.952-0.232-0.692-1.096s2.971-3.434 2.971-3.434zM9.256 4.948q-2.315 4.174-4.63 8.348c-0.050 0.091-0.106 0.179-0.174 0.29l-2.919-1.701c1.638-3.304 3.317-6.556 5.54-9.521 0.413 0.388 0.803 0.759 1.199 1.123 0.283 0.261 0.58 0.511 0.862 0.773 0.258 0.234 0.28 0.406 0.122 0.69zM16.526 26.035l-2.25 2.452s-0.406 0.58-1.125 0.174c0 0-0.635-0.648 0-1.42s2.856-3.34 2.856-3.34 1.010-0.569 1.241 0.348-0.721 1.787-0.721 1.787zM32.74 12.215c-0.375 0.866-0.952 2.626-1.471 2.308s-6.029-5.165-6.029-5.165l-1.449-1.384s-0.627-0.406-1.551-0.232-4.099 0.721-4.099 0.721-0.721 0.317-1.212 0.58-2.136-0.146-2.164-0.638c0 0-0.202-0.29 0.606-0.923s1.556-1.303 2.136-1.502 6.521-0.603 6.521-0.603 1.212-0.092 2.337 0.603 5.885 4.763 5.885 4.763 0.865 0.606 0.49 1.471zM33.275 10.179l-7.194-5.947c0.666-0.794 1.31-1.565 1.959-2.328 0.193-0.227 0.386-0.093 0.555 0.042 0.746 0.598 1.503 1.184 2.226 1.809 1.528 1.318 3.038 2.658 4.555 3.99 0.022 0.026 0.043 0.054 0.061 0.085l0.001 0.003z"></path>
<path d="M15.69 22.060l-0.075-0.034c-0.015-0.711-0.519-1.3-1.189-1.445l-0.010-0.002c-0.825-0.187-1.522 0.046-2.083 0.685-1.128 1.283-2.261 2.561-3.386 3.846-0.121 0.139-0.228 0.296-0.314 0.466l-0.006 0.013c-0.118 0.229-0.187 0.499-0.187 0.785 0 0.843 0.6 1.547 1.397 1.706l0.011 0.002c0.696 0.133 1.217-0.208 1.647-0.704 1.275-1.475 2.544-2.953 3.792-4.45 0.197-0.238 0.271-0.577 0.402-0.868zM13.756 23.64l-2.857 3.317s-0.779 0.635-1.299 0c0 0-0.664-0.659 0-1.527s3.406-3.922 3.406-3.922 0.952-0.649 1.5 0.166-0.75 1.967-0.75 1.967z"></path>
<path d="M12.703 19.614c0-0.686-0.414-1.337-0.986-1.576-0.632-0.263-1.456-0.116-1.93 0.392-0.885 0.943-1.77 1.888-2.617 2.865-0.404 0.456-0.767 0.966-1.073 1.513l-0.022 0.044c-0.519 0.969-0.029 2.095 0.998 2.483 0.522 0.197 0.905 0.094 1.279-0.318 1.359-1.504 2.689-3.035 4.028-4.557 0.2-0.215 0.323-0.505 0.323-0.823 0-0.008-0-0.016-0-0.024l0 0.001zM11.362 20.522l-3.116 3.467s-0.828 1.134-1.5 0c0 0-0.144-0.808 0.548-1.645s2.827-3.145 2.827-3.145 0.837-0.837 1.442-0.202-0.202 1.524-0.202 1.524z"></path>
</symbol>
<symbol id="icon-4" viewBox="0 0 29 32">
<title>Добавить в сравнение</title>
<path fill="#b19354" style="fill: var(--color2, #b19354)" d="M0 29.811h28.966v2.189h-28.966v-2.189z"></path>
<path fill="#b19354" style="fill: var(--color2, #b19354)" d="M3.277 28.966v-14.886h2.189v14.886h-2.189z"></path>
<path fill="#b19354" style="fill: var(--color2, #b19354)" d="M7.373 28.966v-28.966h2.189v28.966h-2.189z"></path>
<path fill="#b19354" style="fill: var(--color2, #b19354)" d="M11.482 28.954v-18.726h2.189v18.726h-2.189z"></path>
<path fill="#b19354" style="fill: var(--color2, #b19354)" d="M15.578 28.966v-28.966h2.189v28.966h-2.189z"></path>
<path fill="#b19354" style="fill: var(--color2, #b19354)" d="M19.674 28.966v-23.846h2.189v23.846h-2.189z"></path>
<path fill="#b19354" style="fill: var(--color2, #b19354)" d="M23.77 28.966v-23.846h2.189v23.846h-2.189z"></path>
</symbol>
<symbol id="icon-5" viewBox="0 0 37 32">
<title>5</title>
<path fill="none" stroke="#435363" stroke-width="1.7467" stroke-miterlimit="10" stroke-linecap="square" stroke-linejoin="miter" style="stroke: var(--color2, #435363)" d="M9.549 0.873c-0.001 0-0.003 0-0.005 0-4.791 0-8.675 3.884-8.675 8.675 0 2.397 0.972 4.567 2.543 6.137l15.138 15.138 15.138-15.138c1.561-1.575 2.525-3.743 2.525-6.137 0-4.816-3.904-8.72-8.72-8.72-2.422 0-4.614 0.988-6.194 2.583l-0.001 0.001-2.806 2.818-2.806-2.818c-1.561-1.568-3.721-2.539-6.108-2.539-0.010 0-0.020 0-0.030 0h0.002z"></path>
</symbol>
<symbol id="icon-6" viewBox="0 0 35 32">
<title>6</title>
<path fill="#bb9835" style="fill: var(--color3, #bb9835)" d="M22.175 20.854v-3.615c1.426-1.298 2.318-3.161 2.318-5.233 0-0.026-0-0.051-0-0.077l0 0.004v-4.843c0-3.884-3.149-7.033-7.033-7.033s-7.033 3.149-7.033 7.033v0 4.843c0.022 2.193 1.032 4.145 2.606 5.435l0.012 0.010v3.221s0 0 0 0c0 2.317-13.022 3.731-13.022 11.285h35.175c0-7.322-12.675-8.898-13.022-11.030z"></path>
</symbol>
</defs>
</svg>
