<!-- Generated by IcoMoon.io -->
<svg version="1.1" xmlns="http://www.w3.org/2000/svg" width="28" height="32" viewBox="0 0 28 32">
<title>viber</title>
<path d="M25.016 2.772c-0.733-0.681-3.895-2.718-10.492-2.744 0 0-7.811-0.525-11.602 2.989-2.112 2.134-2.822 5.306-2.9 9.179s-0.311 11.249 6.613 13.216l0.041 0.011 0.005 6.577 5.151-5.707c4.751 0.318 8.531-0.644 8.938-0.777 0.955-0.314 6.137-0.772 7.017-8.026 0.902-7.48-0.34-12.585-2.771-14.719zM13.76 4.625c2.367 0.018 4.375 0.833 5.97 2.424 0.786 0.787 1.405 1.739 1.802 2.801l0.018 0.054c0.399 1.077 0.607 2.313 0.618 3.673 0 0.001 0 0.003 0 0.005 0 0.29-0.235 0.525-0.525 0.525-0.289 0-0.523-0.233-0.525-0.521v-0c-0.011-1.236-0.192-2.354-0.554-3.312-0.359-0.966-0.896-1.791-1.575-2.473l0 0c-0.655-0.661-1.438-1.193-2.308-1.558l-0.047-0.017c-0.847-0.344-1.829-0.544-2.857-0.544-0.009 0-0.018 0-0.028 0h0.001c-0.144-0.002-0.273-0.062-0.366-0.157l-0-0c-0.092-0.095-0.149-0.225-0.149-0.369 0-0.291 0.235-0.528 0.525-0.531h0zM17.845 9.33c-0.397-0.441-0.879-0.795-1.423-1.039l-0.027-0.011c-0.579-0.254-1.25-0.421-1.955-0.465l-0.017-0.001c-0.27-0.027-0.48-0.254-0.48-0.529 0-0.16 0.070-0.303 0.182-0.401l0.001-0.001c0.090-0.079 0.208-0.127 0.338-0.127 0.015 0 0.030 0.001 0.044 0.002l-0.002-0c1.744 0.131 3.129 0.758 4.114 1.862s1.474 2.496 1.439 4.13c-0.006 0.285-0.239 0.514-0.525 0.514-0.29 0-0.526-0.235-0.526-0.525 0-0.004 0-0.008 0-0.012v0.001c0.030-1.357-0.363-2.499-1.164-3.398zM18.004 12.006c0 0.008 0.001 0.017 0.001 0.026 0 0.281-0.219 0.511-0.495 0.53l-0.002 0h-0.025c-0 0-0 0-0 0-0.283 0-0.513-0.223-0.526-0.503l-0-0.001c-0.033-0.67-0.206-1.178-0.515-1.503s-0.77-0.498-1.389-0.533c-0.274-0.022-0.489-0.251-0.489-0.529 0-0.293 0.238-0.531 0.531-0.531 0.004 0 0.009 0 0.013 0h-0.001c0.895 0.050 1.599 0.339 2.093 0.861s0.755 1.25 0.8 2.182zM22.103 20.301v0.013c-0.388 0.682-0.855 1.266-1.4 1.767l-0.005 0.005-0.013 0.010c-0.769 0.657-1.519 0.864-2.242 0.624-2.784-1.123-5.608-2.747-8.218-5.455-2.645-2.743-4.415-5.824-5.334-8.713l-0.091-0.422c-0.181-1.049 0.476-1.752 2.284-2.975l0.032-0.024c0.63-0.387 1.253-0.196 1.656 0.139 0.373 0.264 1.421 1.653 1.421 1.653 0.207 0.314 1.648 2.093 1.316 2.947-0.113 0.491-0.958 1.007-1.414 1.431l-0.036 0.030c-0.193 0.322-0.272 0.543-0.208 1.015l0.017 0.076q0.356 1.727 1.999 3.32c1.087 1.051 2.146 1.675 3.143 1.925 0.139 0.029 0.673 0.102 1.019-0.338l0.675-0.869c0.324-0.431 1.111-0.707 1.882-0.272 0.659 0.386 1.207 0.748 1.735 1.136l-0.056-0.039c0.511 0.385 1.556 1.276 1.56 1.28 0.498 0.436 0.613 1.068 0.276 1.736z"></path>
</svg>
