<!-- Generated by IcoMoon.io -->
<svg version="1.1" xmlns="http://www.w3.org/2000/svg" width="32" height="32" viewBox="0 0 32 32">
<title>vk</title>
<path d="M27 0h-22c-2.761 0-5 2.239-5 5v0 22c0 2.761 2.239 5 5 5v0h22c2.761 0 5-2.239 5-5v0-22c0-2.761-2.239-5-5-5v0zM28 23.85c-0.237 0.114-0.515 0.184-0.808 0.19l-0.002 0h-3.47c-0.439-0.017-0.844-0.149-1.19-0.366l0.010 0.006c-0.432-0.264-0.801-0.579-1.115-0.944l-0.005-0.006-1.2-1.33c-0.189-0.217-0.407-0.402-0.648-0.553l-0.012-0.007c-0.111-0.075-0.247-0.12-0.394-0.12-0.255 0-0.479 0.135-0.604 0.337l-0.002 0.003c-0.176 0.262-0.303 0.572-0.358 0.906l-0.002 0.014c-0.060 0.299-0.097 0.644-0.1 0.997l-0 0.003c-0.005 0.141-0.027 0.274-0.063 0.402l0.003-0.012c-0.049 0.183-0.173 0.33-0.336 0.408l-0.004 0.002c-0.17 0.094-0.373 0.15-0.589 0.15-0 0-0.001 0-0.001 0h-1.26c-0.018 0-0.040 0-0.061 0-1.553 0-3.003-0.439-4.234-1.2l0.035 0.020c-1.083-0.656-2-1.465-2.754-2.409l-0.016-0.021c-0.966-1.194-1.876-2.528-2.674-3.934l-0.076-0.146c-0.763-1.294-1.582-2.886-2.318-4.523l-0.132-0.327c-0.054-0.112-0.099-0.242-0.128-0.379l-0.002-0.011c-0.002-0.015-0.003-0.033-0.003-0.051 0-0.176 0.113-0.325 0.27-0.379l0.003-0.001c0.18-0.076 0.39-0.12 0.61-0.12h0.75c0.89 0 1.77 0 2.66 0 0.45 0.004 0.835 0.281 0.997 0.673l0.003 0.007c0.31 0.71 0.62 1.41 1 2.1 0.535 1.058 1.106 1.966 1.752 2.814l-0.032-0.044c0.178 0.248 0.386 0.459 0.622 0.635l0.008 0.005c0.084 0.060 0.179 0.11 0.282 0.147l0.008 0.003c0.048 0.019 0.104 0.029 0.162 0.029 0.169 0 0.317-0.091 0.397-0.227l0.001-0.002c0.125-0.213 0.213-0.463 0.249-0.73l0.001-0.010c0.078-0.497 0.123-1.070 0.123-1.654 0-0.188-0.005-0.376-0.014-0.562l0.001 0.026c-0.006-0.441-0.035-0.868-0.086-1.288l0.006 0.058c-0.038-0.291-0.108-0.554-0.208-0.802l0.008 0.022c-0.159-0.352-0.473-0.61-0.852-0.689l-0.008-0.001-0.32-0.070c-0.1 0-0.14-0.070-0.080-0.16 0.079-0.129 0.168-0.241 0.27-0.34l0-0c0.237-0.214 0.538-0.361 0.871-0.409l0.009-0.001c0.254-0.051 0.565-0.094 0.882-0.118l0.028-0.002c0.41 0 0.81 0 1.21 0h1.24c0.388 0.002 0.764 0.053 1.122 0.147l-0.032-0.007c0.367 0.107 0.642 0.41 0.709 0.784l0.001 0.006c0.026 0.21 0.041 0.453 0.041 0.7s-0.015 0.49-0.044 0.729l0.003-0.029c0 0.19 0 0.38 0 0.56q0 0.53 0 1.060c0 0.54 0 1.090 0 1.63-0.001 0.020-0.001 0.044-0.001 0.067 0 0.275 0.056 0.537 0.156 0.776l-0.005-0.013c0.067 0.134 0.147 0.249 0.241 0.351l-0.001-0.001c0.066 0.077 0.164 0.126 0.274 0.126 0.065 0 0.126-0.017 0.178-0.047l-0.002 0.001c0.265-0.137 0.488-0.318 0.667-0.536l0.003-0.004c0.526-0.62 1.012-1.31 1.434-2.042l0.036-0.068c0.503-0.844 0.987-1.831 1.391-2.859l0.049-0.141c0.038-0.098 0.078-0.18 0.125-0.258l-0.005 0.008c0.127-0.218 0.359-0.361 0.624-0.361 0.016 0 0.032 0.001 0.048 0.002l-0.002-0h2.5c0.47 0 0.95 0 1.42 0 0.059-0.005 0.129-0.008 0.199-0.008 0.221 0 0.435 0.028 0.639 0.082l-0.018-0.004c0.259 0.033 0.457 0.251 0.457 0.516 0 0.030-0.002 0.059-0.007 0.087l0-0.003c-0.014 0.155-0.046 0.297-0.094 0.432l0.004-0.012c-0.173 0.497-0.386 0.926-0.644 1.323l0.014-0.023c-0.575 0.912-1.125 1.685-1.713 2.426l0.043-0.056c-0.42 0.56-0.85 1.11-1.27 1.68-0.117 0.164-0.227 0.351-0.32 0.547l-0.010 0.023c-0.068 0.122-0.107 0.267-0.107 0.421 0 0.222 0.082 0.425 0.218 0.58l-0.001-0.001c0.179 0.222 0.359 0.421 0.549 0.609l0.001 0.001c0.58 0.58 1.18 1.14 1.76 1.72 0.424 0.421 0.803 0.886 1.13 1.387l0.020 0.032c0.129 0.195 0.246 0.419 0.341 0.654l0.009 0.026c0.042 0.087 0.066 0.189 0.066 0.297 0 0.318-0.212 0.586-0.501 0.671l-0.005 0.001z"></path>
</svg>
