<!-- Generated by IcoMoon.io -->
<svg version="1.1" xmlns="http://www.w3.org/2000/svg" width="32" height="32" viewBox="0 0 32 32">
<title>youtube</title>
<path d="M14.91 21.18c-0.072 0.084-0.154 0.157-0.246 0.217l-0.004 0.003c-0.065 0.045-0.143 0.074-0.229 0.080l-0.001 0c-0.008 0.001-0.017 0.002-0.026 0.002-0.057 0-0.108-0.024-0.144-0.062l-0-0c-0.010-0.031-0.016-0.067-0.016-0.105s0.006-0.074 0.017-0.107l-0.001 0.002v-3.11h-0.81v3.39c-0.001 0.019-0.002 0.041-0.002 0.063 0 0.177 0.053 0.342 0.144 0.48l-0.002-0.003c0.092 0.111 0.231 0.181 0.385 0.181 0.012 0 0.024-0 0.036-0.001l-0.002 0c0.173-0.004 0.335-0.052 0.475-0.133l-0.005 0.003c0.182-0.099 0.338-0.223 0.469-0.368l0.001-0.002v0.45h0.81v-4.060h-0.81z"></path>
<path d="M10.26 17.46h0.94v4.69h0.91v-4.69h0.95v-0.8h-2.8v0.8z"></path>
<path d="M15.86 13.56c0.006 0 0.014 0.001 0.021 0.001 0.103 0 0.197-0.038 0.269-0.101l-0 0c0.068-0.067 0.11-0.16 0.11-0.264 0-0.006-0-0.011-0-0.017l0 0.001v-2.43c0-0.004 0-0.008 0-0.012 0-0.092-0.043-0.174-0.11-0.227l-0.001-0c-0.074-0.056-0.168-0.090-0.271-0.090-0.007 0-0.014 0-0.020 0l0.001-0c-0.005-0-0.011-0-0.017-0-0.096 0-0.185 0.034-0.254 0.091l0.001-0.001c-0.062 0.055-0.1 0.135-0.1 0.224 0 0.006 0 0.011 0 0.017l-0-0.001v2.43c-0 0.006-0 0.012-0 0.019 0 0.101 0.038 0.192 0.101 0.262l-0-0c0.065 0.062 0.153 0.101 0.25 0.101 0.007 0 0.014-0 0.021-0.001l-0.001 0z"></path>
<path d="M17.87 18.050c-0.136 0.003-0.263 0.040-0.374 0.102l0.004-0.002c-0.136 0.075-0.251 0.169-0.349 0.279l-0.001 0.001v-1.77h-0.82v5.49h0.82v-0.31c0.094 0.113 0.211 0.205 0.344 0.267l0.006 0.003c0.118 0.057 0.256 0.090 0.402 0.090 0.006 0 0.013-0 0.019-0h-0.001c0.013 0.001 0.028 0.001 0.044 0.001 0.202 0 0.383-0.089 0.506-0.231l0.001-0.001c0.12-0.163 0.192-0.368 0.192-0.59 0-0.025-0.001-0.049-0.003-0.073l0 0.003v-2.24c0.002-0.027 0.003-0.058 0.003-0.089 0-0.25-0.076-0.483-0.206-0.676l0.003 0.004c-0.129-0.16-0.326-0.261-0.546-0.261-0.016 0-0.031 0-0.047 0.002l0.002-0zM17.87 21.2c0.001 0.012 0.002 0.025 0.002 0.039 0 0.090-0.027 0.173-0.073 0.242l0.001-0.002c-0.048 0.056-0.119 0.091-0.198 0.091-0.008 0-0.016-0-0.023-0.001l0.001 0c-0.030 0.007-0.065 0.011-0.1 0.011s-0.070-0.004-0.103-0.012l0.003 0.001c-0.074-0.037-0.136-0.084-0.19-0.14l-0-0v-2.57c0.048-0.048 0.104-0.088 0.166-0.118l0.004-0.002c0.026-0.006 0.055-0.009 0.085-0.009s0.059 0.003 0.088 0.009l-0.003-0c0.004-0 0.008-0 0.013-0 0.095 0 0.18 0.043 0.237 0.11l0 0c0.051 0.075 0.082 0.168 0.082 0.268 0 0.015-0.001 0.029-0.002 0.044l0-0.002z"></path>
<path d="M27 0h-22c-2.761 0-5 2.239-5 5v0 22c0 2.761 2.239 5 5 5v0h22c2.761 0 5-2.239 5-5v0-22c0-2.761-2.239-5-5-5v0zM17.93 9.76h0.91v3.42c-0.001 0.008-0.001 0.017-0.001 0.027 0 0.076 0.023 0.146 0.062 0.205l-0.001-0.001c0.040 0.044 0.098 0.072 0.163 0.072 0.010 0 0.019-0.001 0.029-0.002l-0.001 0c0.094-0.009 0.18-0.041 0.252-0.091l-0.002 0.001c0.107-0.068 0.199-0.148 0.279-0.239l0.001-0.002v-3.39h0.91v4.46h-0.91v-0.49c-0.146 0.167-0.318 0.307-0.51 0.415l-0.010 0.005c-0.153 0.085-0.335 0.136-0.529 0.14l-0.001 0c-0.013 0.001-0.029 0.002-0.045 0.002-0.174 0-0.33-0.078-0.434-0.201l-0.001-0.001c-0.102-0.147-0.163-0.329-0.163-0.526 0-0.026 0.001-0.052 0.003-0.077l-0 0.003zM14.55 10.76c-0.001-0.013-0.001-0.028-0.001-0.043 0-0.313 0.144-0.593 0.369-0.776l0.002-0.001c0.251-0.195 0.57-0.312 0.916-0.312 0.029 0 0.059 0.001 0.088 0.003l-0.004-0c0.018-0.001 0.039-0.001 0.059-0.001 0.333 0 0.638 0.122 0.872 0.323l-0.002-0.002c0.222 0.197 0.36 0.483 0.36 0.801 0 0.010-0 0.020-0 0.031l0-0.002v2.3c0.001 0.020 0.002 0.044 0.002 0.068 0 0.326-0.135 0.621-0.352 0.832l-0 0c-0.241 0.207-0.558 0.333-0.903 0.333-0.034 0-0.068-0.001-0.101-0.004l0.005 0c-0.031 0.003-0.067 0.004-0.104 0.004-0.345 0-0.66-0.131-0.898-0.345l0.001 0.001c-0.223-0.215-0.361-0.516-0.361-0.85 0-0.018 0-0.035 0.001-0.053l-0 0.002zM12.060 8.18l0.67 2.42h0.060l0.64-2.42h1l-1.19 3.54v2.51h-1v-2.4l-1.24-3.65zM24 20.9c0 1.613-1.307 2.92-2.92 2.92h-10.16c-1.613 0-2.92-1.307-2.92-2.92v-2.35c0-1.613 1.307-2.92 2.92-2.92v0h10.16c1.61 0.006 2.914 1.31 2.92 2.919v0.001z"></path>
<path d="M20.31 18c-0.016-0.001-0.035-0.001-0.054-0.001-0.324 0-0.618 0.126-0.836 0.332l0.001-0.001c-0.21 0.207-0.341 0.495-0.341 0.813 0 0.017 0 0.033 0.001 0.049l-0-0.002v1.81c-0.002 0.023-0.002 0.051-0.002 0.078 0 0.322 0.118 0.617 0.314 0.843l-0.001-0.002c0.202 0.205 0.482 0.332 0.792 0.332 0.024 0 0.048-0.001 0.071-0.002l-0.003 0c0.029 0.002 0.063 0.004 0.097 0.004 0.313 0 0.599-0.119 0.814-0.315l-0.001 0.001c0.195-0.226 0.313-0.522 0.313-0.846 0-0.033-0.001-0.066-0.004-0.098l0 0.004v-0.2h-0.83v0.2c0.003 0.025 0.004 0.055 0.004 0.085 0 0.136-0.031 0.265-0.086 0.381l0.002-0.005c-0.061 0.069-0.149 0.112-0.247 0.112-0.011 0-0.023-0.001-0.034-0.002l0.001 0c-0.009 0.001-0.019 0.001-0.029 0.001-0.098 0-0.186-0.047-0.24-0.121l-0.001-0.001c-0.052-0.111-0.083-0.24-0.083-0.377 0-0.026 0.001-0.051 0.003-0.076l-0 0.003v-0.76h1.55v-1c0.002-0.024 0.003-0.052 0.003-0.080 0-0.308-0.115-0.588-0.304-0.802l0.001 0.001c-0.207-0.222-0.501-0.361-0.828-0.361-0.015 0-0.030 0-0.044 0.001l0.002-0zM20.63 19.59h-0.72v-0.41c-0.002-0.017-0.003-0.036-0.003-0.056 0-0.112 0.031-0.217 0.084-0.307l-0.002 0.003c0.059-0.069 0.146-0.112 0.243-0.112 0.013 0 0.026 0.001 0.038 0.002l-0.002-0c0.010-0.001 0.021-0.002 0.032-0.002 0.096 0 0.181 0.043 0.238 0.111l0 0c0.052 0.087 0.083 0.192 0.083 0.304 0 0.020-0.001 0.039-0.003 0.059l0-0.002z"></path>
</svg>
